<?xml version="1.0" encoding="UTF-8"?><svg id="_レイヤー_2" xmlns="http://www.w3.org/2000/svg" viewBox="0 0 105 25"><g id="_コンテンツ"><g><path d="M8.42,25c-1.5,0-2.9-.26-4.17-.79-1.28-.53-2.3-1.34-3.08-2.45-.78-1.1-1.16-2.5-1.16-4.19,0-.12,0-.25,.02-.41,.01-.15,.02-.26,.02-.33H4.26s0,.11-.02,.26-.02,.28-.02,.37c0,1.27,.39,2.25,1.16,2.96,.78,.7,1.81,1.06,3.1,1.06,1.48,0,2.55-.32,3.22-.95,.67-.63,1-1.4,1-2.29,0-.84-.22-1.52-.66-2.02-.44-.51-1.02-.92-1.74-1.25s-1.51-.63-2.38-.9c-.87-.27-1.75-.57-2.63-.9-.88-.33-1.68-.76-2.4-1.29-.72-.53-1.3-1.21-1.74-2.04-.44-.83-.66-1.9-.66-3.19,0-1.5,.37-2.75,1.11-3.73,.74-.99,1.72-1.72,2.96-2.2,1.23-.48,2.56-.72,3.99-.72s2.78,.24,3.96,.72c1.18,.48,2.13,1.24,2.85,2.27,.72,1.03,1.07,2.37,1.07,4.01v.42h-4.19v-.39c0-1.1-.33-1.97-1-2.59-.67-.62-1.56-.93-2.69-.93s-2.1,.25-2.79,.76c-.69,.51-1.04,1.2-1.04,2.1,0,.75,.22,1.35,.66,1.81,.44,.46,1.03,.83,1.76,1.13,.73,.29,1.53,.57,2.4,.83,.87,.26,1.74,.55,2.62,.88,.87,.33,1.67,.76,2.38,1.29,.72,.53,1.3,1.2,1.74,2.01,.44,.81,.66,1.84,.66,3.08,0,1.85-.36,3.33-1.09,4.44-.73,1.1-1.74,1.91-3.03,2.41-1.29,.51-2.76,.76-4.41,.76Z"/><path d="M28.91,24.58V4.01h-6.3V.42h16.69v3.59h-6.3V24.58h-4.08Z"/><path d="M45.75,24.58V.42h15.51v3.59h-11.39v6.41h9.82v3.59h-9.82v6.97h11.61v3.59h-15.73Z"/><path d="M68.92,24.58V.42h8.78c1.67,0,3.07,.31,4.21,.92,1.13,.61,1.98,1.46,2.54,2.54,.56,1.08,.84,2.32,.84,3.73,0,1.48-.32,2.78-.95,3.89-.63,1.12-1.51,1.98-2.63,2.59-1.12,.61-2.46,.92-4.01,.92h-4.66v9.58h-4.12Zm4.12-13.17h4.33c1.17,0,2.08-.34,2.72-1.02,.64-.68,.97-1.61,.97-2.78,0-1.1-.32-1.98-.97-2.62s-1.55-.97-2.72-.97h-4.33v7.4Z"/><path d="M98.01,25c-2.32,0-4.09-.66-5.32-1.97-1.23-1.31-1.85-3.07-1.85-5.28v-.53h3.98v.63c0,1.27,.26,2.24,.79,2.92,.52,.68,1.29,1.02,2.29,1.02,.93,0,1.68-.32,2.26-.95,.57-.63,.86-1.62,.86-2.96,0-1.06-.16-1.87-.47-2.45-.31-.57-.72-.97-1.24-1.2-.51-.22-1.06-.33-1.63-.33h-1.47v-3.2h1.54c.79,0,1.46-.32,2.01-.97,.55-.65,.82-1.62,.82-2.94,0-1.24-.25-2.15-.75-2.73-.5-.57-1.13-.86-1.9-.86-.81,0-1.46,.31-1.95,.93-.49,.62-.73,1.56-.73,2.8v.56h-3.98v-.88c0-1.34,.29-2.5,.86-3.5,.57-1,1.36-1.77,2.35-2.31,.99-.54,2.13-.81,3.42-.81,1.98,0,3.59,.56,4.82,1.69,1.23,1.13,1.84,2.77,1.84,4.93,0,1.43-.3,2.57-.91,3.4s-1.37,1.51-2.27,2.02v.14c1.05,.38,1.92,1.06,2.6,2.04s1.02,2.28,1.02,3.87c0,1.43-.3,2.66-.9,3.7-.6,1.03-1.42,1.83-2.47,2.38-1.05,.55-2.26,.83-3.62,.83Z"/></g></g></svg>