<?xml version="1.0" encoding="UTF-8"?><svg id="_レイヤー_2" xmlns="http://www.w3.org/2000/svg" viewBox="0 0 105 25"><g id="_コンテンツ"><g><path d="M8.34,25c-1.49,0-2.87-.26-4.13-.79-1.27-.53-2.28-1.34-3.05-2.45-.77-1.1-1.15-2.5-1.15-4.19,0-.12,0-.25,.02-.41,.01-.15,.02-.26,.02-.33H4.22s0,.11-.02,.26-.02,.28-.02,.37c0,1.27,.38,2.25,1.15,2.96,.77,.7,1.79,1.06,3.07,1.06,1.47,0,2.53-.32,3.19-.95,.66-.63,.99-1.4,.99-2.29,0-.84-.22-1.52-.66-2.02-.44-.51-1.01-.92-1.72-1.25s-1.5-.63-2.36-.9c-.86-.27-1.73-.57-2.61-.9-.88-.33-1.67-.76-2.38-1.29-.71-.53-1.28-1.21-1.72-2.04-.44-.83-.66-1.9-.66-3.19,0-1.5,.37-2.75,1.1-3.73,.73-.99,1.71-1.72,2.93-2.2,1.22-.48,2.54-.72,3.96-.72s2.75,.24,3.92,.72c1.17,.48,2.11,1.24,2.82,2.27,.71,1.03,1.06,2.37,1.06,4.01v.42h-4.15v-.39c0-1.1-.33-1.97-.99-2.59-.66-.62-1.55-.93-2.66-.93s-2.08,.25-2.77,.76c-.69,.51-1.03,1.2-1.03,2.1,0,.75,.22,1.35,.66,1.81,.44,.46,1.02,.83,1.74,1.13,.72,.29,1.51,.57,2.38,.83,.86,.26,1.73,.55,2.59,.88,.86,.33,1.65,.76,2.36,1.29,.71,.53,1.28,1.2,1.72,2.01,.44,.81,.66,1.84,.66,3.08,0,1.85-.36,3.33-1.08,4.44-.72,1.1-1.72,1.91-3,2.41-1.28,.51-2.73,.76-4.36,.76Z"/><path d="M28.63,24.58V4.01h-6.24V.42h16.53v3.59h-6.24V24.58h-4.04Z"/><path d="M45.3,24.58V.42h15.36v3.59h-11.28v6.41h9.72v3.59h-9.72v6.97h11.49v3.59h-15.57Z"/><path d="M68.25,24.58V.42h8.69c1.65,0,3.04,.31,4.17,.92,1.12,.61,1.96,1.46,2.52,2.54,.56,1.08,.83,2.32,.83,3.73,0,1.48-.31,2.78-.94,3.89-.63,1.12-1.5,1.98-2.61,2.59-1.11,.61-2.44,.92-3.97,.92h-4.61v9.58h-4.08Zm4.08-13.17h4.29c1.16,0,2.06-.34,2.7-1.02,.64-.68,.96-1.61,.96-2.78,0-1.1-.32-1.98-.96-2.62s-1.54-.97-2.7-.97h-4.29v7.4Z"/><path d="M90.49,24.58v-3.2h5.6V5.56h-5.64V3.1c.66-.07,1.45-.23,2.36-.47,.91-.25,1.83-.56,2.77-.93,.93-.37,1.78-.8,2.54-1.27h1.74V21.37h5.14v3.2h-14.51Z"/></g></g></svg>