<?xml version="1.0" encoding="UTF-8"?><svg id="_レイヤー_2" xmlns="http://www.w3.org/2000/svg" viewBox="0 0 105 25"><g id="_コンテンツ"><g><path d="M8.4,25c-1.5,0-2.89-.26-4.16-.79-1.27-.53-2.3-1.34-3.07-2.45-.77-1.1-1.16-2.5-1.16-4.19,0-.12,0-.25,.02-.41,.01-.15,.02-.26,.02-.33H4.25s0,.11-.02,.26-.02,.28-.02,.37c0,1.27,.39,2.25,1.16,2.96,.77,.7,1.8,1.06,3.09,1.06,1.48,0,2.55-.32,3.22-.95,.67-.63,1-1.4,1-2.29,0-.84-.22-1.52-.66-2.02-.44-.51-1.02-.92-1.73-1.25s-1.51-.63-2.38-.9c-.87-.27-1.75-.57-2.63-.9-.88-.33-1.68-.76-2.39-1.29-.71-.53-1.29-1.21-1.73-2.04-.44-.83-.66-1.9-.66-3.19,0-1.5,.37-2.75,1.11-3.73,.74-.99,1.72-1.72,2.95-2.2,1.23-.48,2.56-.72,3.99-.72s2.77,.24,3.95,.72c1.18,.48,2.13,1.24,2.84,2.27,.71,1.03,1.07,2.37,1.07,4.01v.42h-4.18v-.39c0-1.1-.33-1.97-1-2.59-.67-.62-1.56-.93-2.68-.93s-2.1,.25-2.79,.76c-.69,.51-1.04,1.2-1.04,2.1,0,.75,.22,1.35,.66,1.81,.44,.46,1.02,.83,1.75,1.13,.73,.29,1.52,.57,2.39,.83,.87,.26,1.74,.55,2.61,.88,.87,.33,1.66,.76,2.38,1.29,.71,.53,1.29,1.2,1.73,2.01,.44,.81,.66,1.84,.66,3.08,0,1.85-.36,3.33-1.09,4.44-.73,1.1-1.73,1.91-3.02,2.41-1.29,.51-2.75,.76-4.4,.76Z"/><path d="M28.84,24.58V4.01h-6.29V.42h16.65v3.59h-6.29V24.58h-4.07Z"/><path d="M45.64,24.58V.42h15.48v3.59h-11.36v6.41h9.79v3.59h-9.79v6.97h11.58v3.59h-15.69Z"/><path d="M68.76,24.58V.42h8.76c1.67,0,3.07,.31,4.2,.92,1.13,.61,1.98,1.46,2.54,2.54,.56,1.08,.84,2.32,.84,3.73,0,1.48-.32,2.78-.95,3.89-.63,1.12-1.51,1.98-2.63,2.59-1.12,.61-2.45,.92-4,.92h-4.65v9.58h-4.11Zm4.11-13.17h4.32c1.17,0,2.07-.34,2.72-1.02,.64-.68,.96-1.61,.96-2.78,0-1.1-.32-1.98-.96-2.62s-1.55-.97-2.72-.97h-4.32v7.4Z"/><path d="M97.92,25c-2.14,0-3.87-.7-5.16-2.11-1.3-1.41-1.95-3.34-1.95-5.81h4c0,1.43,.28,2.58,.84,3.45,.56,.87,1.32,1.3,2.27,1.3s1.68-.43,2.25-1.3c.57-.87,.86-2.15,.86-3.84,0-1.5-.27-2.65-.8-3.45-.54-.8-1.22-1.2-2.05-1.2-.71,0-1.32,.22-1.81,.65-.49,.44-.89,.98-1.2,1.64l-3.68-.53,.82-13.38h11.65v3.59h-8.29l-.39,6.3c.38-.33,.88-.65,1.5-.97,.62-.32,1.38-.47,2.29-.47,1.12,0,2.12,.28,3,.84,.88,.56,1.59,1.42,2.13,2.57s.8,2.62,.8,4.4c0,2.65-.63,4.7-1.89,6.14-1.26,1.44-2.99,2.17-5.18,2.17Z"/></g></g></svg>