<?xml version="1.0" encoding="UTF-8"?><svg id="_レイヤー_2" xmlns="http://www.w3.org/2000/svg" viewBox="0 0 105 25"><g id="_コンテンツ"><g><path d="M8.36,25c-1.5,0-2.88-.26-4.15-.79-1.27-.53-2.29-1.34-3.06-2.45-.77-1.1-1.16-2.5-1.16-4.19,0-.12,0-.25,.02-.41,.01-.15,.02-.26,.02-.33H4.24s0,.11-.02,.26-.02,.28-.02,.37c0,1.27,.39,2.25,1.16,2.96,.77,.7,1.8,1.06,3.08,1.06,1.47,0,2.54-.32,3.2-.95,.66-.63,1-1.4,1-2.29,0-.84-.22-1.52-.66-2.02-.44-.51-1.01-.92-1.73-1.25s-1.5-.63-2.37-.9c-.87-.27-1.74-.57-2.62-.9-.88-.33-1.67-.76-2.38-1.29-.71-.53-1.29-1.21-1.73-2.04-.44-.83-.66-1.9-.66-3.19,0-1.5,.37-2.75,1.1-3.73,.74-.99,1.71-1.72,2.94-2.2,1.22-.48,2.54-.72,3.97-.72s2.76,.24,3.93,.72c1.18,.48,2.12,1.24,2.83,2.27,.71,1.03,1.07,2.37,1.07,4.01v.42h-4.16v-.39c0-1.1-.33-1.97-1-2.59-.66-.62-1.55-.93-2.67-.93s-2.09,.25-2.78,.76c-.69,.51-1.03,1.2-1.03,2.1,0,.75,.22,1.35,.66,1.81,.44,.46,1.02,.83,1.74,1.13,.72,.29,1.52,.57,2.38,.83,.87,.26,1.73,.55,2.6,.88,.87,.33,1.65,.76,2.37,1.29,.71,.53,1.29,1.2,1.73,2.01,.44,.81,.66,1.84,.66,3.08,0,1.85-.36,3.33-1.09,4.44-.72,1.1-1.73,1.91-3.01,2.41-1.28,.51-2.74,.76-4.38,.76Z"/><path d="M28.72,24.58V4.01h-6.26V.42h16.59v3.59h-6.26V24.58h-4.06Z"/><path d="M45.45,24.58V.42h15.41v3.59h-11.32v6.41h9.75v3.59h-9.75v6.97h11.53v3.59h-15.63Z"/><path d="M68.48,24.58V.42h8.72c1.66,0,3.05,.31,4.18,.92,1.13,.61,1.97,1.46,2.53,2.54,.56,1.08,.84,2.32,.84,3.73,0,1.48-.32,2.78-.94,3.89-.63,1.12-1.5,1.98-2.62,2.59-1.12,.61-2.44,.92-3.99,.92h-4.63v9.58h-4.09Zm4.09-13.17h4.31c1.16,0,2.06-.34,2.71-1.02,.64-.68,.96-1.61,.96-2.78,0-1.1-.32-1.98-.96-2.62s-1.54-.97-2.71-.97h-4.31v7.4Z"/><path d="M98.7,24.58v-5.63h-9.01v-3.1c.85-1.53,1.67-3.17,2.44-4.93s1.48-3.57,2.12-5.42c.64-1.85,1.2-3.68,1.67-5.49h3.81c-.33,1.6-.8,3.21-1.41,4.84s-1.25,3.19-1.92,4.67-1.32,2.76-1.92,3.86-1.07,1.88-1.41,2.38h5.62v-6.16c.28-.61,.56-1.26,.82-1.95,.26-.69,.5-1.39,.73-2.08,.23-.69,.41-1.34,.55-1.95h1.71V15.74h2.49v3.2h-2.49v5.63h-3.81Z"/></g></g></svg>