<?xml version="1.0" encoding="UTF-8"?><svg id="_レイヤー_2" xmlns="http://www.w3.org/2000/svg" viewBox="0 0 105 25"><g id="_コンテンツ"><g><path d="M8.42,25c-1.51,0-2.9-.26-4.18-.79-1.28-.53-2.31-1.34-3.08-2.45-.78-1.1-1.16-2.5-1.16-4.19,0-.12,0-.25,.02-.41,.01-.15,.02-.26,.02-.33H4.27s0,.11-.02,.26-.02,.28-.02,.37c0,1.27,.39,2.25,1.17,2.96,.78,.7,1.81,1.06,3.1,1.06,1.48,0,2.56-.32,3.23-.95,.67-.63,1-1.4,1-2.29,0-.84-.22-1.52-.66-2.02-.44-.51-1.02-.92-1.74-1.25s-1.51-.63-2.38-.9c-.87-.27-1.75-.57-2.63-.9-.88-.33-1.69-.76-2.4-1.29-.72-.53-1.3-1.21-1.74-2.04-.44-.83-.66-1.9-.66-3.19,0-1.5,.37-2.75,1.11-3.73,.74-.99,1.73-1.72,2.96-2.2,1.23-.48,2.56-.72,4-.72s2.78,.24,3.96,.72c1.18,.48,2.13,1.24,2.85,2.27,.72,1.03,1.08,2.37,1.08,4.01v.42h-4.19v-.39c0-1.1-.33-1.97-1-2.59-.67-.62-1.57-.93-2.69-.93s-2.1,.25-2.8,.76c-.69,.51-1.04,1.2-1.04,2.1,0,.75,.22,1.35,.66,1.81,.44,.46,1.03,.83,1.76,1.13,.73,.29,1.53,.57,2.4,.83,.87,.26,1.74,.55,2.62,.88,.87,.33,1.67,.76,2.38,1.29,.72,.53,1.3,1.2,1.74,2.01,.44,.81,.66,1.84,.66,3.08,0,1.85-.36,3.33-1.09,4.44-.73,1.1-1.74,1.91-3.03,2.41-1.29,.51-2.76,.76-4.41,.76Z"/><path d="M28.93,24.58V4.01h-6.31V.42h16.71v3.59h-6.31V24.58h-4.09Z"/><path d="M45.78,24.58V.42h15.52v3.59h-11.4v6.41h9.82v3.59h-9.82v6.97h11.62v3.59h-15.74Z"/><path d="M68.97,24.58V.42h8.78c1.67,0,3.08,.31,4.21,.92,1.14,.61,1.98,1.46,2.55,2.54,.56,1.08,.84,2.32,.84,3.73,0,1.48-.32,2.78-.95,3.89-.63,1.12-1.51,1.98-2.63,2.59-1.12,.61-2.46,.92-4.01,.92h-4.66v9.58h-4.12Zm4.12-13.17h4.34c1.17,0,2.08-.34,2.72-1.02,.65-.68,.97-1.61,.97-2.78,0-1.1-.32-1.98-.97-2.62s-1.55-.97-2.72-.97h-4.34v7.4Z"/><path d="M91.16,24.58v-.7c0-1.2,.22-2.31,.66-3.33,.44-1.02,1-1.99,1.67-2.9,.72-.94,1.5-1.85,2.35-2.75,.85-.89,1.65-1.78,2.42-2.68,.76-.89,1.39-1.83,1.88-2.82,.49-.99,.73-2.04,.73-3.17,0-.42-.08-.86-.23-1.32-.16-.46-.42-.84-.81-1.14s-.92-.46-1.61-.46c-1,0-1.72,.39-2.15,1.18-.43,.79-.65,1.72-.65,2.8v1.44h-3.94c-.07-.52-.11-.99-.11-1.41,0-1.74,.32-3.14,.97-4.21,.65-1.07,1.5-1.85,2.56-2.36,1.06-.5,2.22-.76,3.46-.76s2.32,.21,3.3,.63c.98,.42,1.76,1.1,2.35,2.03,.59,.93,.88,2.13,.88,3.61,0,1.15-.2,2.25-.61,3.29-.41,1.04-.93,2.04-1.58,2.99-.65,.95-1.34,1.85-2.1,2.69-.75,.85-1.48,1.64-2.17,2.4-.69,.75-1.29,1.48-1.79,2.18-.14,.21-.28,.41-.39,.6-.12,.19-.23,.38-.32,.56h9.07v3.59h-13.84Z"/></g></g></svg>