<?xml version="1.0" encoding="UTF-8"?><svg id="_レイヤー_2" xmlns="http://www.w3.org/2000/svg" viewBox="0 0 105 25"><g id="_コンテンツ"><g><path d="M8.42,25c-1.5,0-2.9-.26-4.17-.79-1.28-.53-2.3-1.34-3.08-2.45-.78-1.1-1.16-2.5-1.16-4.19,0-.12,0-.25,.02-.41,.01-.15,.02-.26,.02-.33H4.26s0,.11-.02,.26-.02,.28-.02,.37c0,1.27,.39,2.25,1.16,2.96,.78,.7,1.81,1.06,3.1,1.06,1.48,0,2.55-.32,3.22-.95,.67-.63,1-1.4,1-2.29,0-.84-.22-1.52-.66-2.02-.44-.51-1.02-.92-1.74-1.25s-1.51-.63-2.38-.9c-.87-.27-1.75-.57-2.63-.9-.88-.33-1.68-.76-2.4-1.29-.72-.53-1.3-1.21-1.74-2.04-.44-.83-.66-1.9-.66-3.19,0-1.5,.37-2.75,1.11-3.73,.74-.99,1.72-1.72,2.96-2.2,1.23-.48,2.56-.72,3.99-.72s2.78,.24,3.96,.72c1.18,.48,2.13,1.24,2.85,2.27,.72,1.03,1.07,2.37,1.07,4.01v.42h-4.19v-.39c0-1.1-.33-1.97-1-2.59-.67-.62-1.56-.93-2.69-.93s-2.1,.25-2.79,.76c-.69,.51-1.04,1.2-1.04,2.1,0,.75,.22,1.35,.66,1.81,.44,.46,1.03,.83,1.76,1.13,.73,.29,1.53,.57,2.4,.83,.87,.26,1.74,.55,2.62,.88,.87,.33,1.67,.76,2.38,1.29,.72,.53,1.3,1.2,1.74,2.01,.44,.81,.66,1.84,.66,3.08,0,1.85-.36,3.33-1.09,4.44-.73,1.1-1.74,1.91-3.03,2.41-1.29,.51-2.76,.76-4.41,.76Z"/><path d="M28.91,24.58V4.01h-6.3V.42h16.69v3.59h-6.3V24.58h-4.08Z"/><path d="M45.75,24.58V.42h15.51v3.59h-11.39v6.41h9.82v3.59h-9.82v6.97h11.61v3.59h-15.73Z"/><path d="M68.92,24.58V.42h8.78c1.67,0,3.07,.31,4.21,.92,1.13,.61,1.98,1.46,2.54,2.54,.56,1.08,.84,2.32,.84,3.73,0,1.48-.32,2.78-.95,3.89-.63,1.12-1.51,1.98-2.63,2.59-1.12,.61-2.46,.92-4.01,.92h-4.66v9.58h-4.12Zm4.12-13.17h4.33c1.17,0,2.08-.34,2.72-1.02,.64-.68,.97-1.61,.97-2.78,0-1.1-.32-1.98-.97-2.62s-1.55-.97-2.72-.97h-4.33v7.4Z"/><path d="M98.34,25c-1.5,0-2.81-.36-3.9-1.09-1.1-.73-1.94-1.95-2.53-3.66-.59-1.71-.88-4.06-.88-7.04,0-3.36,.28-6,.84-7.92,.56-1.92,1.37-3.29,2.42-4.08,1.05-.8,2.3-1.2,3.76-1.2s2.72,.35,3.64,1.04c.92,.69,1.59,1.63,2.02,2.8,.43,1.17,.64,2.51,.64,4.01h-3.94c0-1.45-.19-2.59-.57-3.42-.38-.82-1.03-1.23-1.93-1.23-.81,0-1.43,.33-1.84,1-.42,.67-.69,1.62-.82,2.85-.13,1.23-.21,2.69-.23,4.38,.43-.66,.99-1.16,1.68-1.51,.69-.35,1.46-.53,2.29-.53,1.36,0,2.48,.34,3.37,1.02,.88,.68,1.55,1.61,1.99,2.78,.44,1.17,.66,2.5,.66,3.98,0,1.6-.29,2.98-.88,4.16-.59,1.17-1.37,2.08-2.36,2.71-.99,.63-2.13,.95-3.42,.95Zm-.18-3.2c.98,0,1.7-.45,2.17-1.34,.47-.89,.7-1.98,.7-3.27s-.23-2.45-.68-3.33c-.45-.88-1.18-1.32-2.19-1.32s-1.71,.44-2.19,1.32c-.48,.88-.72,1.99-.72,3.33s.24,2.38,.72,3.27c.48,.89,1.21,1.34,2.19,1.34Z"/></g></g></svg>