<svg id="b" data-name="レイヤー 2" xmlns="http://www.w3.org/2000/svg" viewBox="0 0 130 130"><g id="c" data-name="レイヤー 1"><circle cx="65" cy="65" r="65" fill="#fff"/><path fill="#a3c741" d="M82.64 52.91v37.28l5.03 7.06 4.04-7.06V52.91h-9.07z"/><path d="M85.71 99.05l-2.36-3.74H40.51c-.78 0-1.42-.63-1.42-1.42V39.77c0-.78.64-1.42 1.42-1.42h45.3c.78 0 1.42.64 1.42 1.42v11.71h5.08c.38 0 .74.15 1 .42.27.27.42.63.42 1v36.95c-.01.26-.09.5-.23.71l-5.38 8.49c-.26.41-.71.66-1.2.66s-.94-.25-1.2-.66zm1.2-3.41l2.81-4.44h-5.63l2.81 4.44zm-44.99-3.16h39.63l-1.21-1.92c-.14-.21-.21-.45-.23-.7s0-.06 0-.09V52.9c0-.38.15-.74.42-1 .27-.27.63-.42 1-.42h2.87V41.19H41.92v51.28zm41.02-4.11h7.94V54.32h-7.94v34.04zm-30.27-5.95c-.78 0-1.42-.63-1.42-1.42s.63-1.42 1.42-1.42h20.96a1.415 1.415 0 011.42 1.41c0 .37-.15.74-.42 1-.27.27-.63.42-1 .42H52.67zm0-10.27c-.78 0-1.42-.63-1.42-1.42s.63-1.42 1.42-1.42h20.96a1.415 1.415 0 011.42 1.41c0 .37-.15.74-.42 1-.27.27-.63.42-1 .42H52.67zm-.61-9.05c-.78 0-1.42-.64-1.42-1.42V49.52c0-.38.15-.74.42-1 .27-.27.63-.42 1-.42h21.89c.38 0 .74.15 1 .42.27.27.42.63.42 1v12.16c0 .38-.15.74-.42 1-.27.27-.63.42-1 .42H52.06zm1.42-2.84h19.05v-9.32H53.48v9.32z"/></g></svg>