<svg id="b" data-name="レイヤー 2" xmlns="http://www.w3.org/2000/svg" viewBox="0 0 250 60"><g id="c" data-name="レイヤー 1"><path d="M1.36 1.42h97.81v53.6c0 1.96-1.53 3.56-3.41 3.56H4.78c-1.88 0-3.41-1.59-3.41-3.56V1.42zm235.9 19.12l-5.85-4.88h-17.54V55.9h24.56l-1.17-35.36zM140.19 12l15.69 21.13 31.09-1.62-17.54-20.73L140.19 12z" fill="#a3c741"/><path d="M99.17 27.51H1.36V16.13h97.81v11.38zM8.76 6.52c-1.44 0-2.62 1.22-2.62 2.73s1.17 2.73 2.62 2.73 2.62-1.22 2.62-2.73-1.17-2.73-2.62-2.73zm7.05 0c-1.44 0-2.62 1.22-2.62 2.73s1.17 2.73 2.62 2.73 2.62-1.22 2.62-2.73-1.17-2.73-2.62-2.73zm7.05 0c-1.44 0-2.62 1.22-2.62 2.73s1.17 2.73 2.62 2.73 2.62-1.22 2.62-2.73-1.17-2.73-2.62-2.73zm7.05 0c-1.44 0-2.62 1.22-2.62 2.73s1.17 2.73 2.62 2.73 2.62-1.22 2.62-2.73-1.17-2.73-2.62-2.73z" fill="#fff"/><path d="M49.84 49.81h3.77c2.04 0 3.07-.95 3.07-2.86 0-.42-.07-.78-.22-1.05-.2-.41-.58-.76-1.13-1.07.65-.25.98-.83.98-1.71 0-1.64-.95-2.46-2.84-2.46h-3.68c-.43 0-.79.12-1.09.37-.31.27-.47.63-.47 1.08v6.17c0 .48.14.85.41 1.12.28.27.68.41 1.21.41zm.62-6.69c0-.31.2-.46.59-.46h2.24c.25 0 .45.08.59.25.12.13.18.3.18.51 0 .19-.06.35-.18.5-.15.16-.34.24-.58.24h-2.84v-1.04zm0 2.93h2.97c.67 0 1 .29 1 .86 0 .25-.09.46-.26.65-.18.18-.43.27-.74.27h-2.41c-.37 0-.56-.15-.56-.45v-1.32zm10.3 4.01c.44 0 .78-.24 1.02-.71l.49-.95h4.3l.49.94c.24.48.61.72 1.09.72.29 0 .55-.1.79-.29.24-.19.36-.43.36-.72 0-.23-.04-.42-.11-.58l-3.34-7.1c-.27-.56-.73-.85-1.39-.85s-1.1.27-1.37.82l-3.38 7.09c-.08.15-.12.34-.12.57 0 .3.13.55.38.75.23.2.5.3.8.3zm3.7-6.59l1.14 2.76h-2.34l1.2-2.76zm8.07 6.28c-.21-.2-.32-.47-.32-.81v-7.16c0-.39.12-.71.36-.94.21-.21.48-.31.81-.31.49 0 .87.19 1.13.56l3.68 5.11v-4.68c0-.31.11-.56.34-.74.21-.16.48-.24.79-.24s.57.08.78.23c.23.19.34.43.34.74v7.32c0 .39-.12.7-.37.91-.24.22-.54.32-.88.32-.47 0-.84-.19-1.12-.56l-3.62-4.85v4.28c0 .36-.12.65-.37.85-.21.19-.48.28-.8.28-.3 0-.55-.1-.76-.31zm11.18-.11c-.24-.2-.36-.47-.36-.82v-7.28c0-.36.12-.64.36-.85.21-.19.46-.28.77-.28s.57.1.8.29c.22.2.33.48.33.83v2.3l3.87-3.09c.19-.15.43-.23.7-.23s.53.12.76.37c.21.23.32.5.32.8 0 .38-.16.69-.49.95l-2.01 1.57 2.43 3.84c.15.23.22.45.22.66 0 .32-.11.61-.34.86-.21.24-.48.36-.8.36-.38 0-.68-.18-.9-.53l-2.41-3.82-1.34 1.13v2.11c0 .35-.11.62-.34.81-.22.2-.49.3-.79.3s-.56-.1-.77-.29zm134.11-26.27c0-.74.58-1.33 1.28-1.33l7.89.04h.02c.7.02 1.26.62 1.25 1.34 0 .73-.57 1.32-1.27 1.32l-7.89-.04c-.71 0-1.28-.6-1.27-1.34zm0 19.45c0-.74.58-1.33 1.28-1.33l7.89.04h.02c.7.02 1.26.61 1.25 1.34 0 .73-.57 1.32-1.27 1.32l-7.89-.04c-.71 0-1.28-.6-1.27-1.34zm31.8 11.66c-.24-.25-.56-.39-.9-.39h-10.26V20c0-.42-.19-.82-.52-1.07l-5.85-4.47c-.22-.17-.49-.27-.76-.27h-9.34V8c0-.42-.19-.82-.52-1.07l-5.86-4.47-.02.03a1.25 1.25 0 00-.8-.29h-22.81c-.34 0-.66.14-.9.39s-.37.59-.37.94V54.1h-8.54V33.14h5.14c.5 0 .95-.3 1.16-.77.21-.47.14-1.03-.18-1.42L171.06 9.7c-.24-.3-.6-.47-.98-.47H138.6c-.5 0-.96.31-1.16.78l-16.98 20.94c-.44.56-.37 1.39.16 1.86.53.47 1.33.41 1.79-.14l16.26-20.04 16.26 20.04c.24.3.6.47.98.47h23.72V54.1h-35.81V35.68c0-.35-.13-.69-.37-.94s-.56-.39-.9-.39h-8.09c-.34 0-.66.14-.9.39s-.37.59-.37.94V54.1h-5.46V31.23c0-.73-.58-1.32-1.28-1.32s-1.27.59-1.28 1.32v22.86h-5.66c-.71 0-1.28.6-1.28 1.33s.57 1.33 1.28 1.33h129.21c.34 0 .66-.14.9-.39s.37-.59.37-.94-.13-.69-.37-.94zm-108.39-.5h-5.54V37h5.54v16.98zm15.24-23.52L141.4 11.88h28.07l15.07 18.58h-28.07zm57.04 23.62h-20.25V4.87h20.25V54.1zm2.56-47.98l3.36 2.57v5.52h-3.36V6.11zm13.98 47.98h-13.92V16.86h13.92V54.1zm5.86 0h-3.3V18.16l3.3 2.52V54.1zM99.17 0H1.36C.61 0 0 .64 0 1.42v53.6C0 57.77 2.14 60 4.78 60h90.98c2.63 0 4.78-2.23 4.78-4.98V1.42c0-.79-.61-1.42-1.36-1.42zm-1.36 55.02c0 1.18-.92 2.13-2.05 2.13H4.78c-1.13 0-2.05-.96-2.05-2.13V28.93h95.08v26.09zm0-28.93H2.73v-8.54h95.08v8.54zm0-11.38H2.73V2.85h95.08V14.7zm120.01 18.53c0-.74.58-1.33 1.28-1.33l7.89.04h.02c.7.02 1.26.61 1.25 1.34 0 .73-.57 1.32-1.27 1.32s-7.89-.04-7.89-.04c-.71 0-1.28-.6-1.27-1.34zm-20.87-19.27a1.367 1.367 0 01.01-1.88c.24-.25.57-.39.91-.39l10.92.05h.02c.7.02 1.26.61 1.25 1.34 0 .73-.57 1.32-1.27 1.32l-10.92-.05c-.34 0-.66-.14-.9-.39zm13.1 9.25c0 .73-.57 1.32-1.27 1.32l-10.92-.05c-.34 0-.66-.14-.9-.39s-.37-.59-.37-.94.14-.69.38-.94.57-.39.91-.39l10.92.05h.02c.7.02 1.26.61 1.25 1.34zm0 19.99c0 .73-.57 1.32-1.27 1.32l-10.92-.05c-.34 0-.66-.14-.9-.39s-.37-.59-.37-.94.14-.69.38-.94.57-.39.91-.39l10.92.05h.02c.7.02 1.26.61 1.25 1.34zm0-10.13c0 .73-.57 1.32-1.27 1.32l-10.92-.05c-.34 0-.66-.14-.9-.4a1.367 1.367 0 01.01-1.88c.24-.25.57-.39.91-.39l10.92.05h.02c.7.02 1.26.61 1.25 1.34zm-41.24-14.14h-15.59c-.34 0-.66-.14-.9-.39s-.37-.59-.37-.94.13-.69.37-.94.56-.39.9-.39h15.59c.71 0 1.28.6 1.28 1.33s-.57 1.33-1.28 1.33zm7.34 5.67c0 .35-.13.69-.37.94s-.57.39-.9.39h-15.59c-.71 0-1.28-.6-1.28-1.33s.57-1.33 1.28-1.33h15.59c.34 0 .66.14.9.39s.37.59.37.94zm-3.48 25.15c.34 0 .66-.14.9-.39s.37-.59.37-.94v-9.25c0-.35-.13-.69-.37-.94s-.56-.39-.9-.39h-11.19c-.34 0-.66.14-.9.39s-.37.59-.37.94v9.25c0 .35.13.69.37.94s.56.39.9.39h11.19zm-9.91-9.25h8.63v6.58h-8.63v-6.58z"/></g></svg>