<svg id="b" data-name="レイヤー 2" xmlns="http://www.w3.org/2000/svg" viewBox="0 0 130 130"><g id="c" data-name="レイヤー 1"><circle cx="65" cy="65" r="65" fill="#fff"/><path d="M54.68 36.31c2.92-2.05 6.96-3.32 11.42-3.32s8.45 1.25 11.36 3.28c1.29-.43 2.05-.94 2.05-1.49 0-.44-.5-.86-1.38-1.24.08-.52.14-1.05.14-1.59 0-6.22-5.46-11.26-12.19-11.26s-12.19 5.04-12.19 11.26c0 .52.05 1.03.13 1.53-.96.39-1.51.83-1.51 1.3 0 .57.81 1.09 2.18 1.54z" fill="#a3c741"/><path d="M96.71 72.73v-9.25c0-2.44-3.98-3.3-7.39-3.3-.66 0-1.34.03-2.02.1-1.11-6.62-6.87-11.69-13.8-11.69h-.95c-.41 0-.8.2-1.04.55l-4.37 6.36c-.31.45-.79.7-1.33.7s-1.03-.26-1.33-.7l-4.37-6.36c-.23-.34-.62-.55-1.04-.55h-.95c-6.93 0-12.69 5.07-13.8 11.69-.67-.07-1.35-.1-2.02-.1-3.41 0-7.39.87-7.39 3.3v9.25c-3.52 1.12-6.11 4.87-6.11 9.31s2.59 8.19 6.11 9.31v4.83c0 1.45 1.18 2.95 9.77 4.14 5.65.78 13.16 1.21 21.13 1.21s15.48-.43 21.13-1.21c8.59-1.18 9.77-2.69 9.77-4.14v-4.59c3.72-.95 6.52-4.82 6.52-9.43s-2.8-8.48-6.52-9.43zm-2.87-9.27c-1.22.64-4.5 1.36-9.4 1.91v-1.71c.44-.37 2.18-.97 4.87-.97 2.24 0 3.8.42 4.52.77zM58.11 51.11h.29l4 5.82a4.143 4.143 0 006.82 0l4-5.82h.29c5.71 0 10.43 4.19 11.32 9.64-1.67.51-2.9 1.37-2.9 2.72v2.16c-4.4.4-9.84.67-16.12.67s-11.71-.27-16.12-.67v-2.16c0-1.35-1.23-2.22-2.9-2.72.89-5.46 5.61-9.64 11.32-9.64zM42.3 62.69c2.7 0 4.44.61 4.87.97v1.71c-4.9-.56-8.18-1.28-9.4-1.91.72-.35 2.29-.77 4.52-.77zM31.32 82.04c0-3.94 2.59-7.14 5.78-7.14s5.78 3.21 5.78 7.14-2.59 7.14-5.78 7.14-5.78-3.21-5.78-7.14zm34.49 16.97c-16.2 0-26.85-1.78-28.38-3.07v-4.26c4.42-.2 7.97-4.44 7.97-9.64s-3.55-9.44-7.97-9.64v-6.37c1.46.57 3.73 1.11 7.25 1.59 5.65.78 13.16 1.21 21.13 1.21s15.48-.43 21.13-1.21c3.52-.48 5.79-1.02 7.25-1.59v6.52c-4.23.44-7.56 4.58-7.56 9.62s3.33 9.18 7.56 9.62v4.16c-1.53 1.29-12.19 3.07-28.38 3.07zm29.12-9.71c-3.19 0-5.78-3.21-5.78-7.14s2.59-7.14 5.78-7.14 5.78 3.21 5.78 7.14-2.59 7.14-5.78 7.14zM80.78 34.77c0-.76-.43-1.41-1.28-1.95.03-.31.04-.59.04-.88 0-5.32-3.59-9.86-8.63-11.67v-.63c0-.7-.56-1.26-1.26-1.26s-1.24.55-1.26 1.24c-.75-.12-1.52-.2-2.31-.2-.84 0-1.65.08-2.45.22a1.261 1.261 0 00-2.52 0v.67c-4.96 1.84-8.49 6.35-8.49 11.62 0 .25.01.51.03.78-.67.39-1.42 1.04-1.42 2.04 0 1.51 1.69 2.26 2.65 2.6.54 6.21 5.76 11.11 12.12 11.11s11.58-4.89 12.12-11.11c.88-.31 2.65-1.05 2.65-2.6zm-26.29-.13c.54-.22.86-.78.77-1.35-.08-.52-.11-.95-.11-1.35 0-3.88 2.43-7.24 5.97-8.9v5.45c0 .7.56 1.26 1.26 1.26s1.26-.56 1.26-1.26V22.2a11.638 11.638 0 014.76-.03v6.32c0 .7.56 1.26 1.26 1.26s1.26-.56 1.26-1.26v-5.51c3.61 1.63 6.11 5.03 6.11 8.96 0 .42-.04.86-.12 1.4-.09.57.22 1.12.75 1.35.07.03.13.06.18.08-.06.03-.12.06-.2.09-3.17-2.03-7.24-3.14-11.52-3.14s-8.41 1.13-11.6 3.18c-.12-.05-.22-.09-.31-.14.08-.04.18-.08.29-.13zm11.53 11.32c-5.18 0-9.41-4.11-9.63-9.24 2.71-1.6 6.11-2.47 9.72-2.47s6.87.83 9.54 2.36c-.16 5.18-4.42 9.35-9.64 9.35z"/></g></svg>