<svg id="b" data-name="レイヤー 2" xmlns="http://www.w3.org/2000/svg" viewBox="0 0 130 130"><g id="c" data-name="レイヤー 1"><circle cx="65" cy="65" r="65" fill="#fff"/><path d="M23.49 89.45V67.67l2.5-2.73c1.06-1.16 3.03-1.16 4.09 0l2.5 2.73v21.78h-9.09zm68.67-24.28v24.42h9.34V65.17h-9.34zM75 61.6V42.07c0-.51-.41-.92-.92-.92h-5.35c-.51 0-.92.41-.92.92V61.6h7.2z" fill="#a3c741"/><path d="M31.01 64.09c-.06-.07-.14-.11-.2-.18v-14.6c.33-.23.57-.59.57-1.03v-5.3c0-.7-.56-1.26-1.26-1.26h-4.17c-.7 0-1.26.56-1.26 1.26v5.3c0 .43.23.8.57 1.02v14.6c-.07.06-.14.11-.2.18l-2.5 2.73c-.21.23-.33.54-.33.85v21.78c0 .7.56 1.26 1.26 1.26h9.09c.7 0 1.26-.56 1.26-1.26V67.66c0-.31-.12-.62-.33-.85l-2.5-2.73zm-3.8-19.85h1.65v2.78h-1.65v-2.78zm.57 5.3h.51v13.29c-.09 0-.17-.03-.26-.03s-.17.02-.26.03V49.54zm3.54 38.64h-6.57V68.15l2.17-2.37c.27-.29.68-.46 1.12-.46s.85.17 1.12.46l2.17 2.37v20.03zm-2.03-19.77v17.93c0 .7-.56 1.26-1.26 1.26s-1.26-.56-1.26-1.26V68.41c0-.7.56-1.26 1.26-1.26s1.26.56 1.26 1.26zm28.17-20.6c0-4.48-3.05-8.32-7.41-9.34-.37-.08-.77 0-1.07.24-.3.24-.48.6-.48.99v5.28h-1.27V39.7c0-.38-.18-.75-.48-.99s-.7-.33-1.07-.24a9.537 9.537 0 00-7.41 9.34c0 4.04 2.53 7.6 6.25 8.98v16.45a9.593 9.593 0 00-6.25 8.98c0 4.48 3.05 8.32 7.41 9.34a1.266 1.266 0 001.55-1.23v-5.28h1.27v5.28c0 .38.18.75.48.99.22.18.5.27.78.27.1 0 .19-.01.29-.03a9.546 9.546 0 007.41-9.34c0-4.04-2.53-7.6-6.25-8.98V56.79a9.593 9.593 0 006.25-8.98zm-7.82 27.58c3.12.81 5.31 3.62 5.31 6.84 0 2.74-1.55 5.16-3.92 6.33V83.8c0-.7-.56-1.26-1.26-1.26h-3.79c-.7 0-1.26.56-1.26 1.26v4.76a7.035 7.035 0 01-3.92-6.33 7.06 7.06 0 015.31-6.84c.56-.14.94-.64.94-1.22v-18.3c0-.57-.39-1.08-.95-1.22a7.07 7.07 0 01-5.3-6.84c0-2.74 1.55-5.16 3.92-6.33v4.76c0 .7.56 1.26 1.26 1.26h3.79c.7 0 1.26-.56 1.26-1.26v-4.76a7.035 7.035 0 013.92 6.33 7.07 7.07 0 01-5.3 6.84c-.56.14-.95.64-.95 1.22v18.3c0 .57.39 1.08.94 1.22zm61.21-33.87h-1.54v-.45c0-.7-.56-1.26-1.26-1.26H85.63c-.7 0-1.26.56-1.26 1.26v.45h-1.54c-.7 0-1.26.56-1.26 1.26v7.56c0 .7.56 1.26 1.26 1.26h1.54v.45c0 .7.56 1.26 1.26 1.26h8.07V63.9h-1.53c-.7 0-1.26.56-1.26 1.26v24.42c0 .7.56 1.26 1.26 1.26h9.34c.7 0 1.26-.56 1.26-1.26V65.16c0-.7-.56-1.26-1.26-1.26h-1.53V53.31h8.07c.7 0 1.26-.56 1.26-1.26v-.45h1.54c.7 0 1.26-.56 1.26-1.26v-7.56c0-.7-.56-1.26-1.26-1.26zm-10.6 46.81h-6.82v-21.9h6.82v21.9zM84.08 49.08v-5.04h.28v5.04h-.28zm13.38 14.68h-1.25V53.31h1.25v10.45zm9.33-12.97H86.88v-8.47h19.91v8.47zm2.8-1.71h-.28v-5.04h.28v5.04zM81.07 68.63h-8.4v-5.77h2.34c.7 0 1.26-.56 1.26-1.26V42.07c0-1.2-.98-2.18-2.18-2.18h-5.35c-1.2 0-2.18.98-2.18 2.18V61.6c0 .7.56 1.26 1.26 1.26h2.34v5.77h-8.4c-.43 0-.83.22-1.06.59-.23.36-.26.82-.08 1.21l9.66 20.46c.21.44.65.72 1.14.72s.93-.28 1.14-.72l9.66-20.46c.18-.39.16-.85-.08-1.21-.23-.37-.63-.59-1.06-.59zm-12-26.23h4.68v17.94h-4.68V42.4zm2.34 44.99l-7.67-16.25h15.34l-7.67 16.25z"/></g></svg>