<svg id="b" data-name="レイヤー 2" xmlns="http://www.w3.org/2000/svg" viewBox="0 0 130 130"><g id="c" data-name="レイヤー 1"><circle cx="65" cy="65" r="65" fill="#fff"/><path d="M53.66 58.2h24.32v11.46H53.66V58.2zm3.74 18.61c5.77.02 11.54.02 17.32.02v-.59H57.05c.2.33.27.57.35.57z" fill="#a3c741"/><path d="M87.96 70.96c.06.23.22.5.15.68-.18.51-.33 1.17-.72 1.41-.33.2-1.13.04-1.43-.25-.29-.29-.42-1.1-.21-1.42.24-.38.91-.53 1.42-.68.22-.06.51.13.77.21v.06zm4.85-13.12c-.79-.01-1.28.45-1.3 1.27-.02.83.47 1.3 1.25 1.32.79.02 1.25-.46 1.32-1.28-.04-.79-.47-1.3-1.27-1.31zm-2.79 5.49c-.82.01-1.27.49-1.25 1.3.02.81.49 1.27 1.31 1.25.82-.02 1.21-.52 1.29-1.3-.11-.79-.54-1.26-1.34-1.25zM66.08 73.61c-3.27 0-6.55-.01-9.82 0-1.26 0-1.67.44-1.69 1.69-.01.76-.01 1.52.01 2.27.04 1.58.41 1.94 1.97 1.95h14.47c1.55 0 3.1.02 4.65 0 1.2-.02 1.68-.53 1.7-1.71.01-.76 0-1.52 0-2.27-.02-1.51-.41-1.91-1.9-1.92h-9.41zm8.66 2.63v.59c-5.77 0-11.54 0-17.32-.02-.08 0-.15-.24-.35-.57h17.67zM52.69 55.51c-1.23 0-1.72.39-1.72 1.41-.01 4.58-.01 9.16 0 13.74 0 1.19.48 1.67 1.61 1.67h26.36c1.15 0 1.73-.56 1.74-1.71.02-4.41.03-8.82 0-13.23 0-1.46-.5-1.89-1.94-1.89H52.69zm25.3 2.69v11.46H53.67V58.2h24.32zM66.12 28.98c1.85 0 3.41-1.45 3.42-3.15 0-1.72-1.54-3.15-3.4-3.15-1.9 0-3.41 1.4-3.4 3.13.01 1.76 1.54 3.18 3.38 3.17zm-.51-2.82c0-.22 0-.45-.01-.67.43.01.86.03 1.28.04v.58c-.42.02-.85.03-1.27.05zm-19.99-.37c-.03 1.69 1.52 3.16 3.38 3.19 1.85.04 3.39-1.37 3.43-3.13.03-1.74-1.46-3.15-3.36-3.17-1.86-.02-3.42 1.38-3.45 3.11zm3.96-.28c-.01.22-.02.64-.04.64-.42.01-.84-.02-1.26-.05 0-.2.01-.39.02-.59h1.29zm33.46 3.48c1.84.02 3.43-1.41 3.46-3.11.03-1.72-1.51-3.17-3.37-3.19-1.89-.02-3.43 1.37-3.44 3.09 0 1.77 1.48 3.18 3.35 3.21zm-.47-2.82c0-.22 0-.45-.01-.67.43.01.86.03 1.29.04v.58c-.42.02-.85.03-1.27.05zm2.74 77.55h23.72v2.77H67.72v3.87h-2.79v-3.84H22.86v-2.78h6.54v-3.06h-6.54v-2.8h5.9v-3.42h-5.9v-2.75c.73-.02 1.4-.05 2.05.04 3.39.48 6.23-.5 8.69-2.87 1.02-.98 2.25-1.72 3.39-2.57-2.96-.2-5.85-.07-8.72-.25-2.01-.13-3.73.48-5.42 1.32v-2.91c2.1-.94 4.17-1.93 6.29-2.82.7-.3.87-.69.87-1.4-.02-13.06 0-26.12-.04-39.19 0-.49-.32-1.14-.7-1.45-2.11-1.73-4.27-3.38-6.43-5.05v-3.37c2.82 2.24 5.66 4.46 8.51 6.66.28.22.66.46.99.46 3 0 5.99-.08 8.99-.08 19.2 0 38.4 0 57.6.01.91 0 1.64-.21 2.36-.79 2.55-2.05 5.14-4.06 7.73-6.05v60.37s-.05-.04-.08-.06c-.45-.24-.82-.74-1.08-1.2-.27-.48-.53-.61-1.09-.68-.78-.1-1.62-.36-2.26-.81-.98-.69-1.61-1.66-1.42-3 .07-.49 0-1.34-.29-1.48-1.49-.76-2.94-1.86-4.95-1.23 0 .59.04 1.24 0 1.88-.06.83-.51 1.36-1.38 1.37-2.24.02-4.48.02-6.72 0-.91 0-1.38-.54-1.41-1.44-.02-.58 0-1.16 0-1.82H31.93v.17h8.66c1.26 0 1.78.46 1.82 1.7a69.5 69.5 0 010 3.82c-.01.35-.12.81-.36 1.03-1.21 1.15-1.41 2.56-1.26 4.12.07.75.03 1.52 0 2.27-.03.96-.53 1.51-1.33 1.52-.81 0-1.3-.53-1.32-1.51-.02-.74 0-1.47 0-2.43-2.02 1.87-3.87 3.57-5.69 5.28-.16.15-.3.4-.3.61-.03 1.26-.01 2.53-.01 3.82h14.68c.23-2.62.46-5.17.69-7.82-.86 0-1.54.02-2.22 0-.92-.04-1.36-.53-1.35-1.45.01-.9-.08-1.81.07-2.68.15-.85.38-1.77.86-2.45.95-1.35 2.03-2.62 3.2-3.78.65-.65 1.07-1.64 2.33-1.64 10.51.04 21.02.02 31.54.04.44 0 1.01.18 1.28.49 1.37 1.54 2.7 3.12 3.96 4.75.35.45.56 1.11.61 1.68.09 1.13.03 2.27.02 3.41-.01 1.14-.4 1.55-1.52 1.61-.51.03-1.02.05-1.65.08.24 2.63.47 5.18.7 7.76zm20.44-19.12c0 .45-.02.89-.06 1.34-.07.76.32 1.1 1.08 1.28V36.63c-.85.32-1.04.85-1.04 1.64.02 15.44.02 30.88.01 46.32zm-3.65-31.97v27.6c0 .65-.04 1.28.91 1.31V39.59c-.12-.03-.25-.07-.37-.1-.18.52-.51 1.04-.52 1.56-.04 3.86-.02 7.72-.02 11.58zm-6.95 27.13h-4.16v4.09h4.16v-4.09zm4.28-8.45c-.45-.21-.85-.39-1.29-.59-.07.64-.32 1.25.31 1.86.22.21.15 1.01-.08 1.3-.27.33-.89.56-1.31.5-.37-.06-.99-.65-.94-.89.21-1-.47-1.62-.79-2.43-.4.03-.8.06-1.2.08.11.31.24.42.38.45 1.29.34 1.54.84 1.08 2.08-.07.18-.05.44.02.62.5 1.18.22 1.75-1.03 2.12-.16.05-.29.2-.44.3.17.11.33.3.51.32.48.05.96.01 1.45.02 1.27.01 1.72.44 1.77 1.74.02.57 0 1.14 0 1.7h1.56v-9.17zm-66.76 9.2h55.5c.15-1.03-.03-2.26.51-2.89.51-.6 1.76-.57 2.75-.83v-1.91c-.59.27-1.06.57-1.58.72-.49.14-1.11.31-1.5.12-.34-.17-.67-.88-.58-1.25.1-.43.63-.78 1.03-1.1.19-.15.51-.12.75-.22.58-.24 1.14-.51 1.71-.77.05.08.11.17.16.25v-.87c-1.3.21-2.42-.14-3.48-.79v-.06c-.23-.72-.07-1.59-1.02-2.03-.2-.1-.26-1.06-.04-1.37.26-.35.95-.61 1.38-.54.37.07.69.64.93 1.05.12.2.02.53.02.91.73.2 1.45.4 2.2.6v-.79c-1.27.02-1.95-.46-1.94-1.33.01-.84.65-1.28 2.01-1.33-.23-1.16.42-2.43-.69-3.49-.21-.2-.07-1.06.19-1.37.26-.3.89-.36 1.36-.38.26-.01.54.26.8.41 1.21-.95 2.23-.87 2.59.2.38 1.13-.41 2.9-1.52 3.38.43.08.86.15 1.29.23.42-1.1.98-1.5 1.79-1.23.68.23.98.74.87 1.45-.12.86-.73 1.13-2.12 1-.21 1.03-.94 1.35-1.96 1.24l.07.98c.51.04.94.08 1.36.12.16-1.21.58-1.74 1.4-1.68.76.06 1.22.5 1.22 1.26 0 .31-.13.8-.34.91-.53.26-1.14.35-1.96.58.78.18 1.41.32 2.09.48-.02-1.02.54-1.57 1.47-1.68V40.96H32.68v39.58zm-1.09 15.9c.3-.26.53-.45.75-.65 2.27-2.1 4.56-4.18 6.79-6.33.4-.38.56-1.02.83-1.53-.1-.06-.2-.13-.3-.19-.2.12-.41.22-.59.36-1.93 1.43-3.79 2.99-5.81 4.26-1.53.96-2.07 2.13-1.74 3.82 0 .03.02.07.08.26zm16.72-7.06h35.55c-.71-.86-1.24-1.58-1.86-2.22-.26-.27-.7-.55-1.05-.55-9.93-.03-19.85-.02-29.78-.02-.26 0-.63-.01-.77.14-.7.81-1.34 1.68-2.09 2.65zm36.78 3.84v-1.12H46.67v1.12h38.42zm-34.91 2.76V97h31.78v-1.05H50.17zm32.47 7.77c-.09-.99-.24-1.87-.22-2.76.02-1-.29-1.33-1.36-1.33-9.33.05-18.66.03-28 .03-.86 0-1.72-.04-2.58.03-.25.02-.67.3-.7.5-.16 1.15-.22 2.31-.32 3.53h33.17z"/></g></svg>