<svg id="b" data-name="レイヤー 2" xmlns="http://www.w3.org/2000/svg" viewBox="0 0 130 130"><g id="c" data-name="レイヤー 1"><circle cx="65" cy="65" r="65" fill="#fff"/><path d="M64.52 49.74h.04c1.4 0 2.81.67 4.13 1.4 1.44.8 2.81 1.7 4.14 2.65l16.86-24.52-8.05-5.53-17.97 26.12c.28-.08.57-.12.84-.12zm-.54 5.82c-.94-.95-1.86-2.01-2.14-3.04l-8.58 12.47-1.24 9.88 9.29-4.35 7.17-10.43c-1.51-1.52-3.01-3.04-4.5-4.55z" fill="#a3c741"/><path d="M111.86 58.7h-10.02c-1.94-2.59-3.46-4.71-4.7-6.43-4.5-6.26-5.86-8.15-11.59-11.22-.57-.3-1.18-.58-1.85-.85l7.03-10.22c.19-.27.26-.61.2-.94-.06-.33-.25-.62-.52-.81l-8.05-5.53c-.57-.39-1.36-.25-1.75.32L63.94 47.26c-1.95.22-4.01 1.42-4.56 3.56-.26.99-.13 1.94.19 2.8l-1.36 1.98-6.32-3.16v.02c-.4-.19-.87-.2-1.26.06L14.21 76.49s-.05.06-.08.08c-.07.05-.12.11-.18.17-.06.07-.1.13-.14.21-.02.03-.05.06-.06.09-.02.04-.01.08-.02.12-.03.08-.04.16-.05.25v.23c0 .08.02.15.04.23.02.08.06.16.1.24.02.04.02.08.05.11.03.05.07.09.11.13.02.02.04.05.06.07.11.1.23.19.36.25.01 0 .02.02.03.02l14.25 6.11a1.275 1.275 0 001.66-.66c.27-.64-.02-1.38-.66-1.65l-12.1-5.18 8.05-5.3 13.55 5.81s.03.02.04.03l5.09 2.75c.19.1.39.15.6.15h.04l-7.14 5.24-1.21-.52c-.64-.27-1.38.02-1.65.66-.28.64.01 1.38.65 1.66 2.28 1 4.55 1.97 6.82 2.93.16.07.33.1.49.1.35 0 .69-.15.93-.41.27-.29.38-.7.31-1.09-.08-.41-.36-.75-.74-.92l-2.91-1.25 10.54-7.74 13.87 5.95h.03l4.15 1.95-10.32 7.54c-2.7-1.15-5.41-2.28-8.12-3.41l-3.06-1.28c-.43-.18-.93-.1-1.29.19-.03.03-.08.07-.11.1-.3.3-.43.72-.35 1.13.08.41.36.75.74.92l12.81 5.49c.16.07.33.1.5.1.4 0 .79-.19 1.03-.53l.08-.11c.22-.31.29-.7.18-1.07-.01-.05-.04-.09-.05-.13l12.7-9.28c.56-.41.68-1.2.27-1.76-.26-.35-.67-.51-1.07-.49.11-1.02-.02-2.02-.4-2.96-.55-1.34-1.58-2.36-2.75-2.72-.69-.22-.74-.22-4.92 3.6l-11.59-4.97c.48-.43.58-1.15.19-1.67-.08-.12-.19-.2-.3-.28l8.61-4.03c.21-.1.38-.24.5-.43s4.5-6.55 4.5-6.55c-.32.73-.6 1.47-.79 2.25-.45 1.82-.26 3.28.56 4.33.87 1.12 2.4 1.62 3.94 1.35 0 .04-.01.07-.02.11-.19 1.25.14 2.59.88 3.58.61.82 1.46 1.34 2.4 1.47.17.02.33.04.5.04 1.69 0 3.07-1.19 3.77-1.79.49-.43.98-.86 1.46-1.3 1.84 1.81 3.68 3.62 5.51 5.39.24.23.55.36.88.36H86c5.47-.19 10.25-.21 14.43-.19l-9.9 6.6-13.32-5.71a1.256 1.256 0 10-.99 2.31l11.81 5.06-17.28 11.52c-1.75-.8-3.65-1.65-5.78-2.59-.55-.24-1.25.04-1.6.52a1.254 1.254 0 00.53 1.89l6.47 2.77s.03 0 .05.01c.14.05.29.09.44.09s.06-.01.09-.01c.09 0 .18-.01.26-.04.03 0 .05-.03.08-.03.09-.03.18-.07.25-.12h.01l33.35-22.23c.4 0 .8.01 1.19.02 2.11.03 4.03.05 5.79.05.7 0 1.26-.56 1.26-1.26V59.98c0-.7-.56-1.26-1.26-1.26zm-35.39-8c.94 1.28 1.58 2.76 1.87 4.26-.98-.89-2.01-1.72-3.07-2.51l1.2-1.75zm5.49-25.21l5.97 4.11-14.71 21.39c-1.08-.72-2.18-1.42-3.32-2.05-.98-.54-2.02-1.04-3.13-1.36L81.96 25.5zM62.22 57.37c1.29 1.3 2.6 2.62 3.9 3.94l-5.14 7.47-5.97-4.11L60.97 56c.46.56.92 1.03 1.25 1.36zM44.09 77.63l-2.02-1.09c.71-.56 1.39-1.09 1.91-1.5.16.68.24 1.64.11 2.59zm1.15-5.42c-.84-.7-.89-.72-5.63 3.07l-3.34-1.43 15.57-10.71c.57-.39.72-1.18.32-1.75-.4-.57-1.18-.72-1.75-.32L33.52 72.68l-5.41-2.32 23.27-15.32 5.36 2.68-4.53 6.58s-.05.1-.08.15c-.02.03-.04.06-.05.1-.04.1-.07.2-.08.3l-1.24 9.88c-.06.46.14.91.51 1.18.04.03.09.05.14.07l-5.34 3.92c1.06-2.59.65-6.44-.84-7.69zm24.4 9.55c.23.21.46.52.64.95.19.46.4 1.31.1 2.43l-2.93-1.38c.82-.74 1.65-1.5 2.2-2zM54.25 67.21l4.53 3.12-5.23 2.45.7-5.56zM70.6 70c-.67.27-1.6.24-2-.27-.4-.52-.28-1.47-.1-2.18.24-.96.62-1.88 1.1-2.74 1.11 1.12 2.22 2.23 3.33 3.35-.72.75-1.46 1.5-2.33 1.85zm5.83 4.12c-.74.63-1.58 1.25-2.27 1.17-.27-.04-.52-.2-.73-.48-.34-.45-.5-1.12-.41-1.7.17-1.13.95-2.19 1.71-3.15 1 1 2.01 2 3.01 2.99-.43.4-.87.79-1.31 1.17zm34.17 3.76c-1.4 0-2.89-.03-4.5-.05-5.25-.07-11.75-.16-19.68.11-1.68-1.63-3.37-3.29-5.05-4.95-.58-.57-1.16-1.15-1.74-1.72-2.94-2.92-5.88-5.86-8.8-8.8-.5-.5-1-1-1.49-1.5-.55-.56-1.1-1.11-1.64-1.66l-3.72-3.75c-.55-.55-1.08-1.15-1.5-1.75-.13-.18-.24-.37-.34-.55-.01-.02-.03-.05-.04-.07a3.26 3.26 0 01-.2-.48c-.01-.04-.03-.08-.04-.12-.04-.15-.07-.29-.08-.44 0-.05-.02-.09-.02-.14 0-.19 0-.37.05-.55.27-1.06 1.59-1.7 2.71-1.71h.04c.23 0 .46.02.69.06 1.17.17 2.34.73 3.44 1.34 1.71.94 3.33 2.01 4.88 3.17.09.07.19.13.29.2 1.74 1.33 3.39 2.78 4.92 4.37.34.35.84.47 1.3.32.46-.15.79-.55.86-1.03.46-3.38-.64-6.92-2.95-9.65l4.26-6.19c.79.29 1.49.59 2.13.93 5.21 2.8 6.27 4.27 10.74 10.47 1.33 1.84 2.98 4.14 5.11 6.98.24.32.61.5 1.01.5h9.4v16.66z"/></g></svg>