<svg id="b" data-name="レイヤー 2" xmlns="http://www.w3.org/2000/svg" viewBox="0 0 130 130"><g id="c" data-name="レイヤー 1"><circle cx="65" cy="65" r="65" fill="#fff"/><path d="M101.03 33.03v20.85c0 3.14-2.57 5.71-5.71 5.71H57.46c-3.14 0-5.71-2.57-5.71-5.71v-8.35l-10.67.32 10.67-7.46v-5.37c0-3.14 2.57-5.71 5.71-5.71h37.86c3.14 0 5.71 2.57 5.71 5.71zm-37.88 7.65c-1.79 0-3.25 1.45-3.25 3.25s1.45 3.25 3.25 3.25 3.25-1.45 3.25-3.25-1.45-3.25-3.25-3.25zm13.24 0c-1.79 0-3.25 1.45-3.25 3.25s1.45 3.25 3.25 3.25 3.25-1.45 3.25-3.25-1.45-3.25-3.25-3.25zm13.24 0c-1.79 0-3.25 1.45-3.25 3.25s1.45 3.25 3.25 3.25 3.25-1.45 3.25-3.25-1.45-3.25-3.25-3.25z" fill="#a3c741"/><path d="M56.52 84.91c0 1.79 1.45 3.25 3.25 3.25s3.25-1.45 3.25-3.25-1.45-3.25-3.25-3.25-3.25 1.45-3.25 3.25zm-13.24 0c0 1.79 1.45 3.25 3.25 3.25s3.25-1.45 3.25-3.25-1.45-3.25-3.25-3.25-3.25 1.45-3.25 3.25zm-13.24 0c0 1.79 1.45 3.25 3.25 3.25s3.25-1.45 3.25-3.25-1.45-3.25-3.25-3.25-3.25 1.45-3.25 3.25z" fill="#fff"/><path d="M95.32 60.85H57.46c-3.84 0-6.97-3.13-6.97-6.97v-7.05l-9.37.28c-.56.04-1.06-.33-1.23-.86-.18-.53.02-1.11.47-1.43l10.13-7.08v-4.71c0-3.85 3.13-6.97 6.97-6.97h37.86c3.85 0 6.97 3.13 6.97 6.97v20.85c0 3.85-3.13 6.97-6.97 6.97zM51.75 44.27a1.266 1.266 0 011.26 1.26v8.35c0 2.46 2 4.45 4.45 4.45h37.86c2.46 0 4.45-2 4.45-4.45V33.03c0-2.46-2-4.45-4.45-4.45H57.46c-2.46 0-4.45 2-4.45 4.45v5.37c0 .41-.2.8-.54 1.03l-7.21 5.04 6.45-.2h.04zm11.41 4.16a4.511 4.511 0 010-9.02 4.511 4.511 0 010 9.02zm0-6.5c-1.1 0-1.99.89-1.99 1.99s.89 1.99 1.99 1.99 1.99-.89 1.99-1.99-.89-1.99-1.99-1.99zm13.24 6.5a4.511 4.511 0 010-9.02 4.511 4.511 0 010 9.02zm0-6.5c-1.1 0-1.99.89-1.99 1.99s.89 1.99 1.99 1.99 1.99-.89 1.99-1.99-.89-1.99-1.99-1.99zm13.24 6.5a4.511 4.511 0 010-9.02 4.511 4.511 0 010 9.02zm0-6.5c-1.1 0-1.99.89-1.99 1.99s.89 1.99 1.99 1.99 1.99-.89 1.99-1.99-.89-1.99-1.99-1.99zm-24.17 59.9H27.6c-3.84 0-6.97-3.13-6.97-6.97V74.01c0-3.85 3.13-6.97 6.97-6.97h37.86c3.84 0 6.97 3.13 6.97 6.97v4.71l10.13 7.08c.46.32.65.9.47 1.43-.18.53-.7.9-1.23.86l-9.37-.28v7.05c0 3.85-3.13 6.97-6.97 6.97zM27.6 69.56c-2.46 0-4.45 2-4.45 4.45v20.85c0 2.46 2 4.45 4.45 4.45h37.86c2.46 0 4.45-2 4.45-4.45v-8.35c0-.34.14-.67.38-.9s.57-.38.92-.35l6.45.2-7.21-5.04c-.34-.24-.54-.62-.54-1.03v-5.37c0-2.46-2-4.45-4.45-4.45H27.6zm32.17 19.86a4.511 4.511 0 010-9.02 4.511 4.511 0 010 9.02zm0-6.5c-1.1 0-1.99.89-1.99 1.99s.89 1.99 1.99 1.99 1.99-.89 1.99-1.99-.89-1.99-1.99-1.99zm-13.24 6.5a4.511 4.511 0 010-9.02 4.511 4.511 0 010 9.02zm0-6.5c-1.1 0-1.99.89-1.99 1.99s.89 1.99 1.99 1.99 1.99-.89 1.99-1.99-.89-1.99-1.99-1.99zm-13.24 6.5a4.511 4.511 0 010-9.02 4.511 4.511 0 010 9.02zm0-6.5c-1.1 0-1.99.89-1.99 1.99s.89 1.99 1.99 1.99 1.99-.89 1.99-1.99-.89-1.99-1.99-1.99z"/></g></svg>