<svg id="b" data-name="レイヤー 2" xmlns="http://www.w3.org/2000/svg" viewBox="0 0 130 130"><g id="c" data-name="レイヤー 1"><circle cx="65" cy="65" r="65" fill="#fff"/><rect x="93.77" y="39.45" width="11.13" height="31.87" rx="1.02" ry="1.02" transform="rotate(-23.9 99.303 55.375)" fill="#a3c741"/><rect x="22.29" y="49.82" width="31.87" height="11.13" rx="1.02" ry="1.02" transform="rotate(-66.1 38.234 55.382)" fill="#a3c741"/><path d="M111.61 66.25L99.53 38.98a2.283 2.283 0 00-3.01-1.16l-8.31 3.68a2.28 2.28 0 00-1.16 3l.34.77c-1.97.62-3.53.95-4.85 1.12-1.25.12-3.51-.5-5.52-1.06-2.07-.58-4.04-1.14-5.46-1.08-2.05.06-3.93.8-6.3 1.73-.26.1-.54.21-.81.32-1.44-.2-2.75-.1-4.12 0-2.53.2-5.33.43-10.15-1.05l.33-.75c.25-.56.26-1.18.04-1.74a2.25 2.25 0 00-1.2-1.26l-8.31-3.68c-1.15-.51-2.5.01-3.01 1.16L25.95 66.25c-.51 1.15.01 2.5 1.16 3.01l8.31 3.68c.3.13.61.2.92.2.28 0 .56-.05.82-.15.32-.12.6-.32.83-.56.77.41 1.43.8 1.85 1.12 1.51 1.17 2.57 2.33 3.47 3.51-.1.08-.2.15-.29.23-.99.88-1.56 2.11-1.54 3.38.02 1.26.58 2.42 1.59 3.28.79.67 2.05 1.06 3.36 1.06-.1.5-.12 1.01-.05 1.51.16 1.17.77 2.13 1.72 2.69.84.5 2.01.8 3.19.8.09 0 .17-.01.25-.02v.51c.1 1.12.68 2.14 1.59 2.8.86.62 2.08.93 3.3.93.49 0 .97-.05 1.43-.15.25.91.84 1.69 1.69 2.13.45.24 1.01.35 1.63.35 1.29 0 2.8-.49 3.84-1.34.31-.26.6-.5.87-.75 2.52.97 4.99 1.63 7.03 1.63 1.37 0 2.55-.3 3.42-1.01.49-.4.84-1.03.98-1.74 2.51.82 4.59-.39 5.5-1.65.52-.71.8-1.83.76-2.98.45.02.92 0 1.4-.1 1.36-.25 2.48-.9 3.09-1.8.54-.8.83-1.71.87-2.61.33.03.66 0 1-.06 1.19-.21 2.29-.94 3.01-1.98.53-.76.85-1.45.98-2.11.02-.09.04-.19.05-.27.15-.93.03-1.88-.33-2.68-.09-.24-.19-.49-.31-.75.85-.87 1.88-1.82 3.31-2.93.48-.37 1.42-.86 2.62-1.4.26.44.65.78 1.13.97.27.1.54.15.82.15.31 0 .63-.07.92-.2l8.31-3.68a2.283 2.283 0 001.16-3.01zm-75.4 4.29l-7.87-3.49 11.89-26.83 7.87 3.49-11.89 26.83zm11.56 11.69s-.08.03-.12.04c-.2.07-.41.13-.63.16-.93.14-1.95-.09-2.35-.43-.44-.37-.69-.86-.7-1.38 0-.54.24-1.06.69-1.46.02-.02.04-.03.06-.05.14-.12.29-.24.46-.36.02-.01.03-.02.05-.04.33-.24.7-.47 1.05-.68.02-.01.05-.03.07-.04.16-.1.32-.19.47-.27.27-.15.5-.28.67-.36.85-.45 1.79-.69 2.58-.69.53 0 1 .11 1.32.33.38.26.61.52.64.72.03.24-.15.63-.51 1.06-.23.28-.51.57-.82.89-.46.42-.94.88-1.41 1.34-.03.03-.07.06-.1.09l-.87.78c-.16.14-.35.25-.56.34zm5.29 4.47c-.18.19-.34.37-.48.56-.96.38-2.43.24-3.2-.22-.35-.21-.48-.59-.51-.88-.08-.57.11-1.22.45-1.58.22-.23.47-.49.74-.76l.84-.84.13-.13c.51-.47.97-.9 1.4-1.32.69-.64 1.29-1.16 1.61-1.38.8-.56 1.67-.85 2.42-.85.46 0 .89.11 1.22.33.33.22.53.52.59.9.07.46-.05 1.01-.32 1.53-.2.14-.39.28-.56.46-.71.73-1.39 1.36-2.05 1.97-.72.67-1.47 1.37-2.28 2.21zm6.45 3.18l-.89.92c-.07.08-.12.17-.19.26-.05.05-.1.1-.15.16-.49.52-2.73.73-3.68.04-.32-.23-.52-.59-.56-.99-.03-.35.08-.73.3-1.12.05-.03.11-.06.16-.1.1-.07.18-.15.28-.22 1.89-1.43 3.38-2.88 4.78-4.67.06-.08.12-.16.17-.25.37-.16.8-.24 1.24-.24.61 0 1.24.14 1.7.39.21.11.54.5.63 1.02.08.49-.07.95-.46 1.38-.03.03-.06.07-.09.1-.01.01-.03.02-.04.04-.61.65-1.32 1.36-2.02 2.07-.4.4-.8.81-1.19 1.2zm7.35-.5c-.49.76-.98 1.45-1.61 2.14-.12.14-.25.27-.38.41l-.04.04-.38.38c-.05.05-.11.1-.16.15-.1.1-.21.19-.32.29-.18.16-.36.31-.56.47-.05.04-.1.07-.15.1-.88.62-2.23.77-2.55.61a.907.907 0 01-.48-.67.924.924 0 01.08-.56c.17-.18.35-.36.52-.54.41-.43.82-.85 1.24-1.28.84-.85 1.71-1.74 2.52-2.62.3-.3.88-.46 1.38-.46.33 0 .62.07.77.2.3.26.46.79.11 1.34zm7.87 3.75c-.85.69-3.41.48-6.96-.69.44-.56.83-1.12 1.21-1.71.54-.84.69-1.8.51-2.69.04.04.06.08.11.12l4.7 3.42.02.02.18.13c.25.18.33.47.35.68.04.37-.07.67-.12.73zm16.75-13.75l-.03.16c-.07.32-.26.72-.59 1.19-.34.49-.86.85-1.39.94-.33.06-.62.01-.83-.13l-9.4-7.38c-.55-.43-1.34-.33-1.77.21-.43.55-.33 1.34.21 1.77l8.26 6.49s.02.05.04.07c.56.69.55 1.85-.02 2.7-.22.33-.79.62-1.46.74-.73.13-1.37.03-1.64-.15l-8.47-5.79c-.57-.39-1.36-.25-1.75.33-.39.57-.24 1.36.33 1.75l7.76 5.3c.48.75.33 2.22.04 2.63-.06.07-1.37 1.82-3.75.2l-1.08-.75-4.85-3.54c-.56-.41-1.35-.29-1.76.28-.14.19-.19.4-.21.61a3.35 3.35 0 00-.69-.86c-.66-.58-1.61-.84-2.58-.82 0-.22 0-.45-.04-.67-.2-1.19-.95-2.29-1.91-2.81-.86-.47-1.98-.71-3.1-.68.03-.35.02-.71-.04-1.05-.17-1.08-.76-1.98-1.68-2.6-1.28-.85-2.96-.97-4.61-.4-.2-.84-.74-1.58-1.66-2.2-1.85-1.25-4.6-.79-6.56.26-.27.14-.56.3-.86.47a20.886 20.886 0 00-4.03-4.11c-.53-.41-1.33-.88-2.24-1.37l10.01-22.6c4.3 1.35 7.21 1.48 9.57 1.37-1 1.16-1.68 2.89-2.3 4.49-.33.84-.63 1.64-.92 2.14-1.28 2.27-.71 3.62 0 4.35 1.89 1.94 6.51.89 7.43.4 1.62-.85 3.37-2.45 4.12-4.1 1.66.24 2.97.32 4 .25 1.04 1.53 3.86 5.14 8.72 7.8 5.66 5.42 10.5 10.77 11.51 13.7.02.04.03.09.05.13.17.36.22.83.15 1.29zm3.62-7.97c-1.29 1-2.27 1.87-3.08 2.67-1.62-2.4-4.11-5.22-6.81-7.99.29-.15.52-.39.63-.72.21-.66-.16-1.37-.82-1.58-1.38-.44-2.62-.99-3.75-1.59l-.03-.03c-5.73-3.06-8.42-7.62-8.45-7.67-.27-.46-.8-.72-1.32-.61-.2.04-.44.06-.69.07h-.06c-.27.01-.56.01-.88 0-.92-.03-2.06-.17-3.46-.4a1.263 1.263 0 00-1.46 1.14c-.07.84-1.46 2.51-3.14 3.39-.72.37-3.8.75-4.45.07-.09-.1-.07-.55.39-1.35.37-.66.71-1.55 1.07-2.48.57-1.47 1.52-3.93 2.42-4.21 1.95-.61 3.57-1.24 4.99-1.79.35-.14.69-.27 1.02-.4.04-.01.08-.03.11-.04.33-.13.66-.25.98-.36 1.22-.43 2.3-.72 3.36-.76.58-.02 1.44.14 2.4.37.73.18 1.52.4 2.3.61 2.65.74 5.15 1.43 6.92 1.09.02 0 .03-.01.04-.02 1.41-.21 3.08-.59 5.12-1.24l9.81 22.14c-1.32.6-2.45 1.19-3.11 1.7zm6.23-.88L89.44 43.7l7.87-3.49 11.89 26.83-7.87 3.49z" fill="#231815"/></g></svg>