<?xml version="1.0" encoding="UTF-8"?><svg id="_レイヤー_2" xmlns="http://www.w3.org/2000/svg" viewBox="0 0 250 84"><defs><style>.cls-1{fill:#fff;}</style></defs><g id="_コンテンツ"><g><path class="cls-1" d="M27.83,84c-4.97,0-9.57-.89-13.8-2.66-4.22-1.78-7.62-4.51-10.18-8.22-2.57-3.71-3.85-8.4-3.85-14.08,0-.39,.02-.85,.06-1.36,.04-.51,.06-.89,.06-1.12H14.09c0,.08-.02,.38-.06,.89-.04,.51-.06,.93-.06,1.24,0,4.26,1.28,7.57,3.85,9.94,2.56,2.37,5.98,3.55,10.24,3.55,4.89,0,8.45-1.06,10.66-3.19,2.21-2.13,3.32-4.69,3.32-7.69,0-2.84-.73-5.11-2.19-6.8-1.46-1.69-3.38-3.09-5.74-4.2-2.37-1.1-4.99-2.11-7.88-3.02-2.88-.91-5.78-1.91-8.7-3.02-2.92-1.1-5.57-2.54-7.93-4.32-2.37-1.78-4.28-4.06-5.74-6.86-1.46-2.8-2.19-6.37-2.19-10.71,0-5.05,1.22-9.23,3.67-12.54,2.45-3.31,5.7-5.78,9.77-7.39C19.17,.81,23.57,0,28.3,0s9.18,.81,13.09,2.42c3.91,1.62,7.05,4.16,9.42,7.63,2.37,3.47,3.55,7.97,3.55,13.49v1.42h-13.86v-1.3c0-3.71-1.11-6.61-3.32-8.7-2.21-2.09-5.17-3.14-8.88-3.14s-6.95,.85-9.24,2.54c-2.29,1.7-3.43,4.04-3.43,7.04,0,2.52,.73,4.55,2.19,6.09,1.46,1.54,3.39,2.8,5.8,3.79,2.41,.99,5.05,1.91,7.93,2.78,2.88,.87,5.76,1.85,8.65,2.96,2.88,1.11,5.51,2.54,7.88,4.32,2.37,1.78,4.28,4.02,5.74,6.74,1.46,2.72,2.19,6.17,2.19,10.35,0,6.23-1.2,11.2-3.61,14.91-2.41,3.71-5.74,6.41-10.01,8.1-4.26,1.69-9.12,2.54-14.57,2.54Z"/><path class="cls-1" d="M84.91,82.58V13.49h-20.84V1.42h55.19V13.49h-20.84V82.58h-13.5Z"/><path class="cls-1" d="M129.91,82.58V1.42h51.28V13.49h-37.66v21.53h32.45v12.07h-32.45v23.43h38.37v12.07h-51.99Z"/><path class="cls-1" d="M195.88,82.58V1.42h29.02c5.53,0,10.16,1.03,13.92,3.08,3.75,2.05,6.55,4.89,8.41,8.52,1.85,3.63,2.78,7.81,2.78,12.54,0,4.97-1.05,9.33-3.14,13.07-2.09,3.75-4.99,6.65-8.7,8.7-3.71,2.05-8.13,3.08-13.26,3.08h-15.4v32.18h-13.62Zm13.62-44.25h14.33c3.87,0,6.87-1.14,9-3.43,2.13-2.29,3.2-5.4,3.2-9.35,0-3.71-1.07-6.64-3.2-8.81-2.13-2.17-5.13-3.25-9-3.25h-14.33v24.84Z"/></g></g></svg>