<?xml version="1.0" encoding="UTF-8"?><svg id="_レイヤー_2" xmlns="http://www.w3.org/2000/svg" viewBox="0 0 570 270"><defs><style>.cls-1{fill:#fff;}</style></defs><g id="_コンテンツ"><path class="cls-1" d="M1.7,81.05V1.39H27.37c9.8,0,17.5,3.23,23.1,9.7,5.6,6.46,8.4,16.12,8.4,28.97,0,13.63-2.8,23.86-8.4,30.71-5.6,6.85-13.3,10.28-23.1,10.28H1.7Zm13.42-11.84h10.97c5.83,0,10.46-2.19,13.88-6.56,3.42-4.37,5.13-10.93,5.13-19.68v-5.81c0-7.97-1.71-13.95-5.13-17.94-3.42-3.99-8.05-5.98-13.88-5.98H15.12v55.97Zm55.07,11.84V1.39h50.52V13.24h-37.1v21.13h31.97v11.84h-31.97v22.99h37.8v11.84h-51.22Zm87.27,1.39c-4.9,0-9.43-.87-13.59-2.61-4.16-1.74-7.51-4.43-10.03-8.07-2.53-3.64-3.79-8.24-3.79-13.82,0-.39,.02-.83,.06-1.34,.04-.5,.06-.87,.06-1.1h13.77c0,.08-.02,.37-.06,.87-.04,.5-.06,.91-.06,1.22,0,4.18,1.26,7.43,3.79,9.75,2.53,2.32,5.89,3.48,10.09,3.48,4.82,0,8.32-1.05,10.5-3.14,2.18-2.09,3.27-4.6,3.27-7.55,0-2.79-.72-5.01-2.16-6.68-1.44-1.66-3.32-3.04-5.66-4.12-2.33-1.08-4.92-2.07-7.76-2.96-2.84-.89-5.7-1.88-8.58-2.96-2.88-1.08-5.48-2.5-7.82-4.24-2.33-1.74-4.22-3.99-5.66-6.73-1.44-2.75-2.16-6.25-2.16-10.51,0-4.95,1.21-9.06,3.62-12.31,2.41-3.25,5.62-5.67,9.63-7.26,4.01-1.59,8.34-2.38,13.01-2.38s9.04,.79,12.89,2.38c3.85,1.59,6.94,4.08,9.28,7.49,2.33,3.41,3.5,7.82,3.5,13.24v1.39h-13.65v-1.28c0-3.64-1.09-6.48-3.27-8.53-2.18-2.05-5.1-3.08-8.75-3.08s-6.85,.83-9.1,2.5c-2.26,1.67-3.38,3.97-3.38,6.91,0,2.48,.72,4.47,2.16,5.98,1.44,1.51,3.34,2.75,5.72,3.72,2.37,.97,4.98,1.88,7.82,2.73,2.84,.85,5.68,1.82,8.52,2.9,2.84,1.08,5.43,2.5,7.76,4.24,2.33,1.74,4.22,3.95,5.66,6.62,1.44,2.67,2.16,6.06,2.16,10.16,0,6.12-1.19,10.99-3.56,14.63-2.37,3.64-5.66,6.29-9.86,7.95-4.2,1.66-8.98,2.5-14.35,2.5Zm38.5-1.39V1.39h13.3V81.05h-13.3Zm55.07,1.39c-9.96,0-17.64-3.37-23.04-10.1-5.41-6.73-8.11-17.11-8.11-31.12s2.92-24.38,8.75-31.12c5.83-6.73,14.04-10.1,24.62-10.1,5.44,0,10.44,1.1,14.99,3.31,4.55,2.21,8.19,5.46,10.91,9.75,2.72,4.3,4.08,9.62,4.08,15.97h-13.65c0-5.88-1.6-10.26-4.78-13.12-3.19-2.86-7.16-4.3-11.9-4.3-6.38,0-11.18,2.3-14.41,6.91-3.23,4.61-4.84,11.21-4.84,19.8v5.81c0,8.67,1.59,15.29,4.78,19.86,3.19,4.57,7.97,6.85,14.35,6.85,5.29,0,9.41-1.78,12.37-5.34,2.96-3.56,4.43-8.55,4.43-14.98v-5.81l5.6,5.11h-24.5v-11.5h32.55v42.73h-8.63l-2.45-8.83c-2.57,3.41-5.66,5.96-9.28,7.66-3.62,1.7-7.57,2.55-11.84,2.55Zm45.5-1.39V1.39h11.78l26.37,45.98c.54,.77,1.13,1.86,1.75,3.25,.62,1.39,1.4,3.18,2.33,5.34l.35-.35c0-2.17-.02-3.89-.06-5.17-.04-1.28-.06-2.19-.06-2.73V1.39h11.9V81.05h-11.67l-26.6-46.22c-.39-.77-.92-1.84-1.58-3.19-.66-1.35-1.5-3.15-2.51-5.4l-.47,.35c.08,1.94,.15,3.54,.23,4.82,.08,1.28,.12,2.3,.12,3.08v46.56h-11.9Zm94.5,0V1.39h13.42V68.74h33.37v12.31h-46.79Zm48.77,0L465.46,1.39h15.87l25.67,79.66h-13.77l-5.13-16.37h-30.34l-5.02,16.37h-12.95Zm21.7-28.33h22.87l-8.98-29.61c-.31-1.16-.66-2.55-1.05-4.18-.39-1.63-.78-3.6-1.17-5.92h-.47c-.39,2.48-.76,4.51-1.11,6.1-.35,1.59-.68,2.92-.99,4.01l-9.1,29.61Zm52.27,28.33V1.39h33.02c4.12,0,7.8,.83,11.03,2.5,3.23,1.67,5.76,3.95,7.58,6.85,1.83,2.9,2.74,6.33,2.74,10.28,0,4.57-1.19,8.44-3.56,11.61-2.37,3.18-5.27,5.38-8.69,6.62v.46c3.97,1.24,7.31,3.62,10.03,7.14,2.72,3.52,4.08,7.84,4.08,12.95,0,4.49-1.07,8.32-3.21,11.5-2.14,3.18-4.96,5.59-8.46,7.26-3.5,1.67-7.35,2.5-11.55,2.5h-33.02Zm13.3-46.68h15.98c3.66,0,6.48-1.08,8.46-3.25,1.98-2.17,2.98-4.68,2.98-7.55,0-3.41-.99-5.98-2.98-7.72-1.98-1.74-4.57-2.61-7.76-2.61h-16.68v21.13Zm0,34.84h17.62c3.34,0,6.13-.95,8.34-2.84,2.22-1.9,3.32-4.66,3.32-8.3,0-3.25-1.05-6.04-3.15-8.36-2.1-2.32-5.17-3.48-9.22-3.48h-16.92v22.99ZM27.42,270c-4.9,0-9.43-.87-13.59-2.61-4.16-1.74-7.51-4.43-10.03-8.07-2.53-3.64-3.79-8.24-3.79-13.82,0-.39,.02-.83,.06-1.34,.04-.5,.06-.87,.06-1.1H13.88c0,.08-.02,.37-.06,.87-.04,.5-.06,.91-.06,1.22,0,4.18,1.26,7.43,3.79,9.75,2.53,2.32,5.89,3.48,10.09,3.48,4.82,0,8.32-1.05,10.5-3.14,2.18-2.09,3.27-4.6,3.27-7.55,0-2.79-.72-5.01-2.16-6.68-1.44-1.66-3.32-3.04-5.66-4.12-2.33-1.08-4.92-2.07-7.76-2.96-2.84-.89-5.7-1.88-8.58-2.96-2.88-1.08-5.48-2.5-7.82-4.24-2.33-1.74-4.22-3.99-5.66-6.73-1.44-2.75-2.16-6.25-2.16-10.51,0-4.95,1.21-9.06,3.62-12.31,2.41-3.25,5.62-5.67,9.63-7.26,4.01-1.59,8.34-2.38,13.01-2.38s9.04,.79,12.89,2.38c3.85,1.59,6.94,4.08,9.28,7.49,2.33,3.41,3.5,7.82,3.5,13.24v1.39h-13.65v-1.28c0-3.64-1.09-6.48-3.27-8.53-2.18-2.05-5.1-3.08-8.75-3.08s-6.85,.83-9.1,2.5c-2.26,1.67-3.38,3.97-3.38,6.91,0,2.48,.72,4.47,2.16,5.98,1.44,1.51,3.34,2.75,5.72,3.72,2.37,.97,4.98,1.88,7.82,2.73,2.84,.85,5.68,1.82,8.52,2.9,2.84,1.08,5.43,2.5,7.76,4.24,2.33,1.74,4.22,3.95,5.66,6.62,1.44,2.67,2.16,6.06,2.16,10.16,0,6.12-1.19,10.99-3.56,14.63-2.37,3.64-5.66,6.29-9.86,7.95-4.2,1.66-8.98,2.5-14.35,2.5Zm54.49-1.39v-67.81h-20.53v-11.84h54.37v11.84h-20.53v67.81h-13.3Zm70.82,1.39c-10.19,0-18.18-3.39-23.98-10.16-5.8-6.77-8.69-17.13-8.69-31.06s2.9-24.38,8.69-31.12c5.79-6.73,13.79-10.1,23.98-10.1s18.18,3.37,23.98,10.1c5.79,6.73,8.69,17.11,8.69,31.12s-2.9,24.29-8.69,31.06c-5.8,6.77-13.79,10.16-23.98,10.16Zm0-11.61c6.14,0,10.83-2.3,14.06-6.91,3.23-4.6,4.84-11.21,4.84-19.8v-5.81c0-8.59-1.62-15.19-4.84-19.8-3.23-4.6-7.92-6.91-14.06-6.91s-10.73,2.3-14,6.91c-3.27,4.61-4.9,11.21-4.9,19.8v5.81c0,8.59,1.63,15.19,4.9,19.8,3.27,4.61,7.93,6.91,14,6.91Zm43.98,10.22v-79.66h33.13c8.01,0,14.06,2.11,18.14,6.33,4.08,4.22,6.13,9.62,6.13,16.2,0,4.88-1.23,9.1-3.68,12.66-2.45,3.56-5.78,6.15-9.98,7.78l15.63,36.69h-14.58l-13.88-33.91h-17.5v33.91h-13.42Zm13.42-45.75h18.2c3.81,0,6.69-1.01,8.63-3.02,1.94-2.01,2.92-4.8,2.92-8.36,0-3.33-.93-5.94-2.8-7.84-1.87-1.9-4.67-2.84-8.4-2.84h-18.55v22.06Zm47.72,45.75l25.67-79.66h15.87l25.67,79.66h-13.77l-5.13-16.37h-30.34l-5.02,16.37h-12.95Zm21.7-28.33h22.87l-8.98-29.61c-.31-1.16-.66-2.55-1.05-4.18-.39-1.63-.78-3.6-1.17-5.92h-.47c-.39,2.48-.76,4.51-1.11,6.1-.35,1.59-.68,2.92-.99,4.01l-9.1,29.61Zm80.74,29.73c-9.96,0-17.64-3.37-23.04-10.1-5.41-6.73-8.11-17.11-8.11-31.12s2.92-24.38,8.75-31.12c5.83-6.73,14.04-10.1,24.62-10.1,5.44,0,10.44,1.1,14.99,3.31,4.55,2.21,8.19,5.46,10.91,9.75,2.72,4.3,4.08,9.62,4.08,15.97h-13.65c0-5.88-1.6-10.26-4.78-13.12-3.19-2.86-7.16-4.3-11.9-4.3-6.38,0-11.18,2.3-14.41,6.91-3.23,4.61-4.84,11.21-4.84,19.8v5.81c0,8.67,1.59,15.29,4.78,19.86,3.19,4.57,7.97,6.85,14.35,6.85,5.29,0,9.41-1.78,12.37-5.34,2.96-3.56,4.43-8.55,4.43-14.98v-5.81l5.6,5.11h-24.5v-11.5h32.55v42.73h-8.63l-2.45-8.83c-2.57,3.41-5.66,5.96-9.28,7.66-3.62,1.7-7.57,2.55-11.84,2.55Zm45.5-1.39v-79.66h50.52v11.84h-37.1v21.13h31.97v11.84h-31.97v22.99h37.8v11.84h-51.22Zm-111.02-174.73l-1.42-1.41-43.71,43.51-43.71-43.51-1.42,1.41,43.71,43.51-43.71,43.51,1.42,1.41,43.71-43.51,43.71,43.51,1.42-1.41-43.71-43.51,43.71-43.51Z"/></g></svg>