<?xml version="1.0" encoding="UTF-8"?><svg id="_レイヤー_2" xmlns="http://www.w3.org/2000/svg" viewBox="0 0 210 15"><g id="_コンテンツ"><g><path d="M11.95,6.01c.34,0,.95-.02,1.35-.08v1.65c-.37-.02-.93-.03-1.35-.03H7.83c-.06,1.69-.39,3.1-.99,4.25-.58,1.09-1.8,2.27-3.18,2.99l-1.49-1.09c1.19-.48,2.34-1.41,2.97-2.38,.69-1.07,.91-2.35,.96-3.77H1.46c-.48,0-1.01,.02-1.46,.05v-1.66c.47,.05,.96,.08,1.46,.08H11.95ZM3.47,3.47c-.55,0-1.14,.03-1.57,.06V1.88c.48,.06,1.04,.1,1.56,.1h5.42c.5,0,1.11-.03,1.6-.1v1.65c-.51-.03-1.09-.06-1.6-.06H3.47Zm8.14-.16c-.32-.64-.83-1.6-1.27-2.2l1.03-.43c.4,.58,.98,1.57,1.3,2.19l-1.06,.45Zm1.57-3.31c.43,.59,1.04,1.58,1.33,2.17l-1.04,.45c-.34-.69-.87-1.6-1.32-2.19l1.03-.43Z"/><path d="M30.35,4.68c.79,0,1.3-.05,1.6-.1v1.69c-.24-.03-.82-.05-1.59-.05h-1.51v.54c0,4.12-.95,6.41-4.7,8.07l-1.36-1.28c3-1.09,4.41-2.46,4.41-6.69v-.64h-4.22v2.4c0,.64,.05,1.33,.06,1.55h-1.78c.03-.22,.08-.89,.08-1.55v-2.4h-1.57c-.74,0-1.4,.03-1.67,.05v-1.73c.21,.03,.93,.13,1.67,.13h1.57v-1.84c0-.56-.06-1.07-.08-1.29h1.8c-.03,.22-.08,.7-.08,1.29v1.84h4.22v-1.85c0-.64-.05-1.17-.08-1.39h1.81c-.02,.24-.08,.75-.08,1.39v1.85h1.49Zm-.06-.73c-.24-.69-.56-1.6-.88-2.22l.91-.29c.29,.59,.69,1.57,.9,2.19l-.93,.32Zm1.65-.51c-.26-.7-.59-1.6-.91-2.2l.91-.29c.3,.59,.71,1.55,.91,2.19l-.91,.3Z"/><path d="M45.17,12.43c0,.65,.03,1.53,.11,1.89h-1.99c.05-.35,.1-1.23,.1-1.89V6.74c-1.68,.89-3.82,1.79-5.81,2.35l-.91-1.55c2.74-.62,5.46-1.81,7.24-2.91,1.62-1.01,3.29-2.43,4.19-3.58l1.36,1.23c-1.16,1.15-2.66,2.4-4.28,3.43v6.71Z"/><path d="M60.89,10.27c2.58-1.58,4.59-3.98,5.57-6.02l.98,1.74c-1.16,2.06-3.13,4.25-5.63,5.78-1.62,.99-3.66,1.93-6.15,2.38l-1.07-1.65c2.68-.4,4.77-1.29,6.31-2.24Zm-.55-5.11l-1.27,1.29c-.83-.85-2.82-2.57-4.01-3.39l1.17-1.25c1.14,.75,3.21,2.41,4.11,3.34Z"/><path d="M83.94,6.07c-.08,.18-.21,.42-.24,.54-.47,1.57-1.17,3.18-2.36,4.49-1.65,1.82-3.69,2.83-5.74,3.4l-1.25-1.44c2.33-.48,4.3-1.52,5.62-2.88,.91-.94,1.49-2.14,1.78-3.19h-8.17c-.39,0-1.09,.02-1.7,.06v-1.66c.63,.06,1.24,.11,1.7,.11h8.22c.43,0,.82-.06,1.03-.14l1.12,.7Zm-10.61-4.39c.43,.05,1.01,.08,1.52,.08h6.26c.51,0,1.17-.03,1.57-.08v1.65c-.4-.03-1.04-.05-1.59-.05h-6.24c-.5,0-1.07,.02-1.52,.05V1.68Z"/><path d="M93.24,7.92c-.71,1.39-2.18,3.45-3.08,4.41l-1.38-.94c1.06-.99,2.39-2.83,3.03-4.15l1.43,.69Zm3.51-2.38v7.6c0,.86-.45,1.36-1.49,1.36-.77,0-1.72-.03-2.44-.11l-.14-1.58c.69,.13,1.41,.18,1.83,.18s.59-.16,.61-.59V5.54h-4.28c-.5,0-1.01,.02-1.44,.05v-1.68c.45,.05,.93,.1,1.43,.1h4.3v-1.49c0-.37-.06-.99-.13-1.25h1.89c-.05,.22-.13,.89-.13,1.26v1.47h4.03c.42,0,1.01-.03,1.43-.1v1.66c-.47-.03-1.01-.03-1.41-.03h-4.04Zm3.27,1.68c.85,1.02,2.12,3.04,2.76,4.19l-1.48,.83c-.66-1.31-1.85-3.27-2.66-4.27l1.38-.75Zm.27-3.67c-.32-.65-.8-1.53-1.24-2.14l1.04-.43c.4,.58,.93,1.49,1.25,2.11l-1.06,.46Zm2.02-.48c-.34-.67-.82-1.52-1.27-2.12l1.03-.43c.42,.59,1,1.53,1.28,2.11l-1.04,.45Z"/><path d="M118.92,12.88l-4.27-4.25-4.28,4.25-.95-.93,4.28-4.27-4.28-4.25,.96-.94,4.27,4.27,4.27-4.27,.95,.94-4.28,4.25,4.28,4.27-.95,.93Z"/><path d="M130.69,.4h1.44V14.97h-1.44v-4.12c-1.38,.38-2.79,.77-3.93,1.07l-.34-1.5c.34-.08,.72-.16,1.14-.27V2.16h1.4v7.65l1.73-.43V.4Zm10.13,1.31c-.48,3.66-1.51,6.6-2.97,8.88,.96,1.33,2.15,2.38,3.61,3.1-.34,.29-.83,.88-1.06,1.28-1.4-.77-2.55-1.79-3.51-3.05-1.03,1.26-2.23,2.27-3.56,3.04-.22-.38-.67-.99-1.04-1.28,1.38-.7,2.63-1.77,3.69-3.16-1.16-2.01-1.96-4.46-2.5-7.22l1.41-.26c.43,2.25,1.09,4.31,2.04,6.05,1-1.71,1.77-3.79,2.2-6.15h-6.34V1.47h6.77l.27-.05,.99,.29Z"/><path d="M147.76,9.68c-.21,1.5-.58,3.05-1.07,4.07-.24-.18-.83-.45-1.14-.56,.48-.96,.79-2.36,.95-3.74l1.27,.22Zm2.73-4.23c.64,1.04,1.27,2.41,1.46,3.31l-1.09,.48c-.05-.26-.14-.54-.26-.86l-1.04,.06v6.57h-1.33v-6.49c-.88,.05-1.7,.1-2.42,.14l-.13-1.31,1.12-.03c.29-.38,.61-.81,.91-1.26-.5-.72-1.28-1.58-1.99-2.24l.72-.97c.14,.11,.29,.24,.43,.37,.5-.88,1.03-2.03,1.32-2.89l1.32,.51c-.56,1.07-1.24,2.3-1.81,3.18,.29,.3,.56,.61,.77,.88,.58-.94,1.12-1.92,1.52-2.73l1.24,.56c-.9,1.45-2.05,3.19-3.1,4.54,.64-.02,1.32-.05,2.01-.1-.21-.45-.43-.89-.66-1.29l1.01-.42Zm.45,3.88c.4,.91,.83,2.11,1.01,2.89l-1.14,.38c-.16-.78-.55-2-.95-2.92l1.08-.35Zm9.18,4.04c0,.72-.14,1.13-.61,1.37-.47,.22-1.17,.24-2.21,.24-.05-.37-.24-1.01-.43-1.37,.69,.05,1.41,.03,1.62,.03s.29-.06,.29-.29v-2.96l-.88,.8c-.39-.89-1.07-2.2-1.78-3.4-.42,1.45-1.07,2.68-2.12,3.61-.14-.24-.43-.56-.71-.78v4.33h-1.33V3.18h3.43c.03-.91,.05-1.87,.06-2.88h1.4c-.02,.99-.03,1.95-.08,2.88h3.35V13.37Zm-6.84-3.15c1.3-1.34,1.8-3.29,2.01-5.66h-2.01v5.66Zm3.37-5.66c-.03,.48-.1,.93-.16,1.37,.83,1.26,1.73,2.8,2.28,3.91V4.57h-2.12Z"/><path d="M175.66,3.71c-.64,1.79-1.65,4.15-2.98,5.83-1.41,1.77-3.67,3.63-6.05,4.6l-1.44-1.47c2.46-.85,4.64-2.44,6.1-4.2,1.51-1.85,2.57-4.54,3.02-6.84l1.96,.51c-.24,.5-.43,1.12-.59,1.57Z"/><path d="M191.35,13.96c0-.22,.02-.53,.02-.86h-7.61c-.66,0-1.46,.03-1.93,.06v-1.81c.47,.03,1.17,.08,1.86,.08h7.69V4.31h-7.49c-.63,0-1.44,.03-1.86,.05v-1.76c.56,.05,1.33,.1,1.86,.1h7.97c.43,0,.99-.02,1.28-.03-.02,.35-.03,.93-.03,1.34V12.27c0,.56,.03,1.34,.06,1.69h-1.83Z"/><path d="M209.28,9.81c-1.7-.91-4.3-1.92-6.07-2.49v4.94c0,.5,.05,1.47,.13,2.04h-1.97c.08-.56,.13-1.42,.13-2.04V3.02c0-.51-.05-1.25-.14-1.79h1.97c-.05,.53-.11,1.23-.11,1.79v2.49c2.12,.64,5.18,1.77,6.79,2.56l-.72,1.74Z"/></g></g></svg>