<?xml version="1.0" encoding="UTF-8"?><svg id="_レイヤー_2" xmlns="http://www.w3.org/2000/svg" viewBox="0 0 380 124"><defs><style>.cls-1{fill:#a3c741;}.cls-2{fill:#7e7b6f;}</style></defs><g id="_コンテンツ"><g><g><path class="cls-2" d="M136.21,20.65c-1.26,.49-2.56,1.04-4.86,1.04-2.93,0-5.32-2.38-5.32-5.31v-7.53c0-2.93,2.39-5.31,5.32-5.31,2.36,0,4.03,.82,5.11,2.5l2.78-2.22C137.88,1.87,135.5,0,131.35,0,126.47,0,122.5,3.97,122.5,8.85v7.53c0,4.88,3.97,8.85,8.86,8.85,4.17,0,5.06-1.79,8.4-1.79V13.55h-3.54v7.1Z"/><rect class="cls-2" x="90.9" y=".28" width="3.75" height="24.67"/><path class="cls-2" d="M109.36,10.87c-4.94-.81-4.94-2.97-4.94-3.79,0-2.12,1.87-3.55,4.66-3.55,2.36,0,4.07,.79,5.24,1.63l2.35-2.65c-1.67-1.29-4.15-2.51-7.59-2.51-4.75,0-8.2,2.98-8.2,7.08,0,5.21,4.96,6.79,7.91,7.28,4.94,.81,4.94,2.97,4.94,3.79,0,2.12-1.87,3.55-4.66,3.55-3.13,0-5.13-1.38-6.21-2.44l-2.35,2.64c1.6,1.53,4.38,3.34,8.56,3.34,4.75,0,8.2-2.98,8.2-7.08,0-5.21-4.96-6.79-7.91-7.28Z"/><path class="cls-2" d="M229.77,7.18c-4.32,0-7.84,3.51-7.84,7.83v2.32c0,4.32,3.52,7.83,7.84,7.83s7.84-3.51,7.84-7.83v-2.32c0-4.32-3.52-7.83-7.84-7.83Zm4.3,10.15c0,2.92-1.93,4.66-4.3,4.66s-4.3-1.74-4.3-4.66v-2.32c0-2.92,1.93-4.66,4.3-4.66s4.3,1.74,4.3,4.66v2.32Z"/><polygon class="cls-2" points="212.9 10.85 202.72 10.85 202.72 .28 199.18 .28 199.18 24.95 202.72 24.95 202.72 14.38 212.9 14.38 212.9 24.95 216.44 24.95 216.44 .28 212.9 .28 212.9 10.85"/><path class="cls-1" d="M185.42,7.18c-4.32,0-7.84,3.51-7.84,7.83v2.32c0,4.32,3.71,7.83,8.26,7.83,2.38,0,4.51-.96,6.02-2.49l-2.85-2.17c-.84,.69-1.95,1.12-3.17,1.12-2.5,0-4.54-1.77-4.71-4h12.12s0,0,0,0h0v-2.61c0-4.32-3.52-7.83-7.84-7.83Zm0,3.54c2.2,0,4.02,1.66,4.27,3.79h-8.53c.25-2.13,2.07-3.79,4.27-3.79Z"/><path class="cls-2" d="M281.19,7.18c-4.32,0-7.84,3.51-7.84,7.83v2.32c0,4.32,3.71,7.83,8.26,7.83,2.38,0,4.51-.96,6.02-2.49l-2.85-2.17c-.84,.69-1.95,1.12-3.17,1.12-2.5,0-4.54-1.77-4.71-4h12.12s0,0,0,0h0v-2.61c0-4.32-3.52-7.83-7.84-7.83Zm0,3.54c2.2,0,4.02,1.66,4.27,3.79h-8.53c.25-2.13,2.07-3.79,4.27-3.79Z"/><path class="cls-2" d="M261.6,7.18c-2.34,0-3.19,.95-5.78,.95-2.12,0-2.6-.95-4.94-.95s-3,.95-5.98,.95c-1.26,0-1.77,0-1.77,0V24.95h3.54V14.3c0-2.53,1.61-3.95,3.59-3.95s3.59,1.42,3.59,3.95v10.65h3.54V14.3c0-2.53,1.61-3.95,3.59-3.95s3.59,1.42,3.59,3.95v6.35c0,1.16-.56,2.2-1.42,2.85l2.54,2.48c1.48-1.31,2.42-3.21,2.42-5.33v-6.97c0-3.37-2.54-6.49-6.5-6.49Z"/><path class="cls-1" d="M171.15,20.78l-2.88-6.51c2.75-1.02,4.72-3.67,4.72-6.77,0-3.98-3.24-7.23-7.23-7.23h-10.02V24.95h3.54V14.73h5.33l3.31,7.48c.86,1.94,2.49,3.3,4.37,3.9l1.32-3.29c-1.05-.25-1.98-.97-2.45-2.03Zm-11.88-16.97h6.49c2.04,0,3.69,1.66,3.69,3.69s-1.66,3.69-3.69,3.69h-6.49V3.82Z"/></g><g><g><rect class="cls-2" x="132.33" y="65.58" width="8.42" height="39.49"/><rect class="cls-2" x="132.33" y="49.61" width="8.42" height="8.41"/></g><path class="cls-2" d="M66.6,65.12c-9.72,0-17.62,7.9-17.62,17.6v5.22c0,9.71,8.33,17.6,18.57,17.6,5.34,0,10.15-2.16,13.54-5.59l-6.4-4.88c-1.89,1.56-4.39,2.52-7.13,2.52-5.61,0-10.21-3.98-10.58-9h27.25s0,0,0,0h0v-5.88c0-9.71-7.9-17.6-17.62-17.6Zm0,7.2c5.49,0,9.54,4.45,9.59,9.28h-19.18c.06-4.83,4.1-9.28,9.59-9.28Z"/><path class="cls-2" d="M214.58,72.24c4.45,0,8.07,3.19,8.07,8.88v14.28c0,2.62-1.26,4.94-3.2,6.41l5.71,5.58c3.33-2.94,5.44-7.22,5.44-11.99v-15.68c0-7.58-5.72-14.6-14.62-14.6-5.42,0-6.74,2.13-13.45,2.13-2.83,0-3.98,0-3.98,0v37.82h7.95v-23.95c0-5.69,3.62-8.88,8.07-8.88Z"/><path class="cls-2" d="M169.02,105.54c3.57,0,6.89-1.09,9.67-2.92v4.47c0,6.57-4.34,10.48-9.67,10.48-.13,0-.25-.01-.38-.02l5.24,6.45c7.36-2.11,12.76-8.88,12.76-16.91v-39.84h-3.48c-6.72,0-8.38-2.13-14.14-2.13-9.72,0-17.62,7.9-17.62,17.6v5.22c0,9.71,7.9,17.6,17.62,17.6Zm9.67-17.6c0,6.57-4.34,10.48-9.67,10.48s-9.67-3.9-9.67-10.48v-5.22c0-6.57,4.34-10.48,9.67-10.48s9.67,3.9,9.67,10.48v5.22Z"/><path class="cls-2" d="M108.04,81.4c-6.28-1.03-6.28-3.45-6.28-4.36,0-2.42,2.22-3.98,5.64-3.98,3.11,0,5.39,1.02,6.95,2.11l5.29-5.96c-2.69-2.09-6.69-4.1-12.24-4.1-7.88,0-13.6,5.02-13.6,11.93,0,3.77,1.68,10.37,12.96,12.21,6.29,1.03,6.29,3.45,6.29,4.36,0,2.42-2.22,3.98-5.64,3.98-4.28,0-6.99-1.91-8.41-3.33l-5.27,5.94c2.59,2.46,7.03,5.34,13.68,5.34,7.88,0,13.6-5.02,13.6-11.93,0-3.77-1.68-10.36-12.96-12.21Z"/><path class="cls-2" d="M18.88,49.61H0v55.46H18.88c10.98,0,19.92-8.93,19.92-19.9v-15.67c0-10.97-8.93-19.9-19.92-19.9Zm11.96,35.56c0,6.59-5.37,11.95-11.96,11.95H7.95V57.56h10.93c6.6,0,11.96,5.36,11.96,11.95v15.67Z"/><polygon class="cls-2" points="268.45 49.61 260.03 49.61 260.03 105.07 293.52 105.07 293.52 97.13 268.45 97.13 268.45 49.61"/><path class="cls-2" d="M332.9,103.41v-26.54c0-1.96-.82-11.75-17.02-11.75-6.86,0-11.81,2.28-14.99,4.47l5.32,6c2.14-1.27,5.33-2.51,9.67-2.51,6.87,0,9.1,2.18,9.1,4.21,0,1.79-1.79,3.39-5.15,3.39h-6.07c-8.43,0-14.56,4.71-14.56,12.3,0,6.26,5.16,12.57,16.68,12.57,6.17,0,8.45-2.13,14.14-2.13h2.88Zm-7.96-11.85c0,1.8,0,6.03-9.06,6.03-5.39,0-8.72-1.81-8.72-4.62,0-3.59,3.59-4.35,6.6-4.35h6.07c2.06,0,3.75-.35,5.12-.81v3.75Z"/><path class="cls-2" d="M348.24,103.41c6.71,0,8.35,2.13,14.14,2.13,9.72,0,17.62-7.9,17.62-17.6v-5.22c0-9.71-7.9-17.6-17.62-17.6-3.57,0-6.89,1.06-9.67,2.89v-18.39s-7.95,0-7.95,0v53.79s3.48,0,3.48,0Zm14.14-4.99c-5.33,0-9.67-3.9-9.67-10.48v-5.22c0-6.57,4.34-10.48,9.67-10.48,5.33,0,9.67,3.9,9.67,10.48v5.22c0,6.57-4.34,10.48-9.67,10.48Z"/></g></g></g></svg>