<?xml version="1.0" encoding="UTF-8"?><svg id="_レイヤー_2" xmlns="http://www.w3.org/2000/svg" viewBox="0 0 395 82"><defs><style>.cls-1{fill:#c0b3ab;}</style></defs><g id="_コンテンツ"><g><path class="cls-1" d="M0,80.61L25.47,1.39h15.74l25.47,79.23h-13.66l-5.09-16.28H17.83l-4.98,16.28H0Zm21.53-28.18h22.69l-8.91-29.45c-.31-1.16-.66-2.54-1.04-4.16-.39-1.62-.77-3.58-1.16-5.89h-.46c-.39,2.47-.75,4.49-1.1,6.06-.35,1.58-.68,2.91-.98,3.98l-9.03,29.45Z"/><path class="cls-1" d="M103.73,82c-10.11,0-17.89-3.37-23.33-10.11-5.44-6.74-8.16-17.04-8.16-30.89s2.72-24.25,8.16-30.95C85.84,3.35,93.62,0,103.73,0c5.48,0,10.38,1.08,14.7,3.23,4.32,2.16,7.72,5.49,10.19,9.99,2.47,4.5,3.7,10.3,3.7,17.38h-13.55c0-6.47-1.37-11.26-4.11-14.38-2.74-3.12-6.39-4.68-10.94-4.68-6.02,0-10.5,2.29-13.43,6.87-2.93,4.58-4.4,11.14-4.4,19.69v5.78c0,8.55,1.51,15.11,4.52,19.69,3.01,4.58,7.52,6.87,13.54,6.87,4.71,0,8.45-1.56,11.23-4.68,2.78-3.12,4.17-7.83,4.17-14.15h12.97c0,6.85-1.24,12.53-3.7,17.03-2.47,4.5-5.85,7.85-10.13,10.05s-9.2,3.29-14.76,3.29Z"/><path class="cls-1" d="M173.42,82c-10.11,0-17.89-3.37-23.33-10.11-5.44-6.74-8.16-17.04-8.16-30.89s2.72-24.25,8.16-30.95c5.44-6.7,13.22-10.05,23.33-10.05,5.48,0,10.38,1.08,14.7,3.23,4.32,2.16,7.72,5.49,10.19,9.99,2.47,4.5,3.7,10.3,3.7,17.38h-13.55c0-6.47-1.37-11.26-4.11-14.38-2.74-3.12-6.39-4.68-10.94-4.68-6.02,0-10.5,2.29-13.43,6.87-2.93,4.58-4.4,11.14-4.4,19.69v5.78c0,8.55,1.51,15.11,4.52,19.69,3.01,4.58,7.52,6.87,13.54,6.87,4.71,0,8.45-1.56,11.23-4.68,2.78-3.12,4.17-7.83,4.17-14.15h12.97c0,6.85-1.24,12.53-3.7,17.03-2.47,4.5-5.85,7.85-10.13,10.05s-9.2,3.29-14.76,3.29Z"/><path class="cls-1" d="M214.63,80.61V1.39h50.13V13.17h-36.81v21.02h31.72v11.78h-31.72v22.87h37.51v11.78h-50.82Z"/><path class="cls-1" d="M302.96,82c-4.86,0-9.36-.87-13.49-2.6-4.13-1.73-7.45-4.41-9.96-8.03-2.51-3.62-3.76-8.2-3.76-13.74,0-.38,.02-.83,.06-1.33,.04-.5,.06-.87,.06-1.1h13.66c0,.08-.02,.37-.06,.87-.04,.5-.06,.91-.06,1.21,0,4.16,1.25,7.39,3.76,9.7,2.51,2.31,5.85,3.46,10.01,3.46,4.78,0,8.26-1.04,10.42-3.12,2.16-2.08,3.24-4.58,3.24-7.51,0-2.77-.71-4.98-2.14-6.64-1.43-1.65-3.3-3.02-5.61-4.1-2.32-1.08-4.88-2.06-7.7-2.95-2.82-.88-5.65-1.87-8.51-2.95-2.86-1.08-5.44-2.48-7.76-4.22-2.32-1.73-4.19-3.97-5.62-6.7-1.43-2.73-2.14-6.22-2.14-10.45,0-4.93,1.2-9.01,3.59-12.24,2.39-3.23,5.57-5.64,9.55-7.22,3.97-1.58,8.28-2.37,12.91-2.37s8.97,.79,12.79,2.37c3.82,1.58,6.89,4.06,9.2,7.45,2.31,3.39,3.47,7.78,3.47,13.17v1.39h-13.55v-1.27c0-3.62-1.08-6.45-3.24-8.49-2.16-2.04-5.06-3.06-8.68-3.06s-6.79,.83-9.03,2.48c-2.24,1.66-3.36,3.95-3.36,6.87,0,2.46,.71,4.45,2.14,5.95,1.43,1.5,3.32,2.73,5.67,3.7,2.35,.96,4.94,1.87,7.76,2.71,2.82,.85,5.63,1.81,8.45,2.89,2.82,1.08,5.38,2.48,7.7,4.22,2.31,1.73,4.19,3.93,5.61,6.58,1.43,2.66,2.14,6.03,2.14,10.11,0,6.08-1.18,10.93-3.53,14.55-2.35,3.62-5.61,6.26-9.78,7.91-4.17,1.65-8.91,2.48-14.24,2.48Z"/><path class="cls-1" d="M367.45,82c-4.86,0-9.36-.87-13.49-2.6-4.13-1.73-7.45-4.41-9.96-8.03-2.51-3.62-3.76-8.2-3.76-13.74,0-.38,.02-.83,.06-1.33,.04-.5,.06-.87,.06-1.1h13.66c0,.08-.02,.37-.06,.87-.04,.5-.06,.91-.06,1.21,0,4.16,1.25,7.39,3.76,9.7,2.51,2.31,5.85,3.46,10.01,3.46,4.78,0,8.26-1.04,10.42-3.12,2.16-2.08,3.24-4.58,3.24-7.51,0-2.77-.71-4.98-2.14-6.64-1.43-1.65-3.3-3.02-5.61-4.1-2.32-1.08-4.88-2.06-7.7-2.95-2.82-.88-5.65-1.87-8.51-2.95-2.86-1.08-5.44-2.48-7.76-4.22-2.32-1.73-4.19-3.97-5.61-6.7-1.43-2.73-2.14-6.22-2.14-10.45,0-4.93,1.19-9.01,3.59-12.24,2.39-3.23,5.57-5.64,9.55-7.22,3.97-1.58,8.28-2.37,12.91-2.37s8.97,.79,12.79,2.37c3.82,1.58,6.89,4.06,9.2,7.45,2.31,3.39,3.47,7.78,3.47,13.17v1.39h-13.55v-1.27c0-3.62-1.08-6.45-3.24-8.49-2.16-2.04-5.06-3.06-8.68-3.06s-6.79,.83-9.03,2.48c-2.24,1.66-3.36,3.95-3.36,6.87,0,2.46,.71,4.45,2.14,5.95,1.43,1.5,3.32,2.73,5.67,3.7,2.35,.96,4.94,1.87,7.76,2.71,2.82,.85,5.63,1.81,8.45,2.89,2.82,1.08,5.38,2.48,7.7,4.22,2.31,1.73,4.19,3.93,5.61,6.58,1.43,2.66,2.14,6.03,2.14,10.11,0,6.08-1.18,10.93-3.53,14.55-2.35,3.62-5.61,6.26-9.78,7.91-4.17,1.65-8.91,2.48-14.24,2.48Z"/></g></g></svg>