<?xml version="1.0" encoding="UTF-8"?><svg id="_レイヤー_2" xmlns="http://www.w3.org/2000/svg" viewBox="0 0 405 70"><g id="_コンテンツ"><path d="M8.28,65.75c0,.95,.63,1.39,2.2,1.39,1.66,0,3.19-.07,4.69-.25l-.11,1.91c-1.32,.09-3.17,.14-4.89,.14-2.98,0-3.8-1.02-3.8-2.63v-3.77H3.1c-.49,0-1.3,.04-1.82,.07v-1.87c.5,.05,1.3,.09,1.82,.09h3.26v-3.45h-2.22c-.63,0-1.17,.02-1.68,.05v-1.79c.51,.04,1.05,.07,1.68,.07H12.77c.6,0,1.14-.02,1.55-.07v1.79c-.45-.02-.9-.05-1.55-.05h-4.49v3.45h5.81c.38,0,1.17-.04,1.61-.07l.02,1.82c-.47-.04-1.19-.04-1.59-.04h-5.84v3.2Zm25.1-8.41c-.72,2-1.86,4.64-3.35,6.52-1.59,1.98-4.13,4.05-6.8,5.14l-1.62-1.64c2.76-.95,5.21-2.73,6.85-4.7,1.7-2.07,2.89-5.07,3.39-7.64l2.2,.57c-.27,.55-.49,1.25-.67,1.75Zm12.96-2.66c-.09,.37-.2,.82-.27,1.21-.09,.54-.25,1.39-.42,2.2,.72-.05,1.37-.09,1.79-.09,1.71,0,3.03,.71,3.03,3.18,0,2.09-.27,4.89-1.01,6.41-.6,1.2-1.52,1.54-2.76,1.54-.69,0-1.53-.12-2.13-.27l-.31-1.86c.74,.21,1.71,.37,2.2,.37,.63,0,1.14-.16,1.46-.84,.54-1.11,.79-3.32,.79-5.16,0-1.52-.69-1.77-1.82-1.77-.36,0-.96,.04-1.62,.09-.65,2.61-1.91,6.66-3.68,9.48l-1.86-.73c1.79-2.36,3.07-6.16,3.7-8.55-.81,.09-1.53,.16-1.95,.21-.47,.05-1.26,.16-1.77,.25l-.18-1.93c.61,.04,1.12,.02,1.73,0,.58-.02,1.53-.09,2.52-.18,.25-1.3,.43-2.64,.43-3.79l2.11,.21Zm6.42,2.3c1.08,1.61,2.4,4.47,2.94,5.98l-1.79,.84c-.5-1.89-1.86-5-3.12-6.5l1.68-.73c.09,.12,.18,.25,.29,.39-.36-.71-.94-1.79-1.44-2.46l1.17-.48c.45,.64,1.1,1.77,1.46,2.46l-1.19,.5Zm2.09-.77c-.38-.77-.96-1.79-1.48-2.46l1.17-.48c.47,.66,1.15,1.79,1.5,2.45l-1.19,.5Zm9.8,3.7c0,.8-.02,1.63-.07,2.43h8.85v7.61h-1.84v-5.88h-7.21c-.31,2.16-1.05,4.22-2.67,5.93-.27-.39-.9-1.05-1.3-1.32,2.24-2.45,2.49-5.73,2.49-8.77v-5.93h1.75v4.07h4.78v-4.48h1.79v4.48h4.69v1.71h-11.25v.14Zm23.51-5.73c-.5,1.27-1.12,2.57-1.82,3.77v11.97h-1.7v-9.38c-.51,.68-1.05,1.3-1.59,1.84-.18-.39-.69-1.29-1.01-1.7,1.79-1.7,3.46-4.32,4.45-7.02l1.66,.52Zm10.42,4.93h-2.15v8.72c0,1.16-.31,1.63-1.06,1.88-.76,.27-2.02,.3-3.99,.29-.09-.46-.4-1.21-.65-1.66,1.46,.07,2.96,.05,3.39,.04,.41-.02,.58-.14,.58-.54v-8.72h-7.05v-1.66h7.05v-3.7h1.73v3.7h2.15v1.66Zm-7.47,6.68c-.49-1.11-1.61-2.98-2.47-4.38l1.46-.68c.87,1.34,2.04,3.14,2.58,4.21l-1.57,.84Zm22.29-10.25c-.45,.34-1.01,.82-1.37,1.09-1.19,1-3.66,2.93-4.92,3.98-1.03,.88-1.03,1.11,.04,2,1.5,1.23,4.87,3.93,6.62,5.64l-1.62,1.48c-.43-.5-.94-.98-1.37-1.45-.97-1.04-3.86-3.45-5.5-4.82-1.73-1.43-1.55-2.3,.13-3.7,1.37-1.14,3.97-3.18,5.18-4.38,.41-.43,.94-.95,1.17-1.32l1.66,1.46Zm22.01,5.47c-1.05,.82-2.38,1.7-3.52,2.32,1.06,1.73,2.51,3.09,4.35,3.84-.4,.34-.92,.98-1.17,1.45-3.32-1.59-5.27-4.93-6.35-9.11h-.04c-.49,.41-1.06,.8-1.66,1.14,3.41,2.95,3.34,7.43,1.59,8.68-.63,.5-1.15,.66-2.02,.66-.45,0-.99-.02-1.55-.05-.04-.45-.18-1.11-.47-1.59,.65,.07,1.24,.09,1.68,.09,.47,0,.85-.04,1.19-.36,.54-.39,.81-1.46,.6-2.73-1.97,1.52-4.8,3-7.18,3.79-.22-.39-.56-1.02-.88-1.38,2.65-.68,5.82-2.25,7.61-3.84-.14-.3-.31-.61-.49-.91-1.53,1.05-3.84,2.2-5.64,2.84-.18-.39-.54-.95-.85-1.29,1.86-.48,4.35-1.55,5.72-2.55-.2-.21-.41-.43-.67-.63-1.39,.66-2.92,1.2-4.35,1.59-.16-.3-.61-1-.88-1.29,2.06-.46,4.27-1.21,5.91-2.18h-3.32v-1.43h9.86v1.43h-2.65c.25,.89,.58,1.77,.96,2.57,1.03-.66,2.16-1.5,2.9-2.18l1.32,1.11Zm-13.2-2.23h-1.66v-3.71h6.56v-1.5h1.73v1.5h6.67v3.71h-1.7v-2.2h-11.61v2.2Zm23.29-3.73c-.13,.34-.31,1.04-.38,1.36-.31,1.45-.88,4.77-.88,6.66,0,.63,.04,1.21,.13,1.86,.27-.71,.63-1.57,.9-2.21l.94,.71c-.49,1.34-1.12,3.23-1.28,4.13-.05,.23-.11,.61-.09,.8,0,.18,.02,.45,.04,.66l-1.62,.11c-.36-1.23-.68-3.32-.68-5.72,0-2.64,.58-5.64,.77-7.05,.07-.45,.14-1,.16-1.46l2,.16Zm4.11,8.64c-.14,.61-.22,1.09-.22,1.57,0,.8,.6,1.43,2.76,1.43,1.61,0,2.96-.14,4.45-.46l.04,1.89c-1.12,.21-2.6,.36-4.53,.36-3.03,0-4.44-1.04-4.44-2.75,0-.7,.14-1.41,.31-2.18l1.62,.14Zm6.47-7.38v1.82c-2.04,.2-5.41,.21-7.48,0v-1.8c2.04,.3,5.63,.23,7.48-.02Zm10.36-1.41c-.13,.3-.29,1.04-.36,1.36-.32,1.43-.87,5.11-.87,7,0,.63,.04,1.21,.13,1.86,.25-.73,.63-1.59,.9-2.23l.92,.71c-.47,1.32-1.08,3.13-1.28,4.04-.05,.23-.09,.59-.09,.8,.02,.18,.02,.45,.04,.66l-1.59,.11c-.36-1.23-.7-3.21-.7-5.61,0-2.64,.58-6,.79-7.41,.05-.45,.13-1,.14-1.46l1.97,.18Zm11.34,13.07c-.83-.77-1.64-1.43-2.47-1.93v.05c0,1.64-.79,3.04-3.28,3.04s-3.82-1-3.82-2.7,1.43-2.84,3.8-2.84c.51,0,.99,.04,1.44,.11-.05-1.23-.13-2.75-.16-4.13-.5,.02-1.01,.04-1.51,.04-1.03,0-2-.05-3.05-.11l-.02-1.68c1.03,.09,2.02,.14,3.08,.14,.5,0,.99-.02,1.5-.04,0-.88-.02-1.62-.02-2.07,0-.3-.04-.79-.11-1.13h2.04c-.05,.36-.09,.73-.11,1.09-.02,.45-.04,1.2-.05,2,1.05-.09,2.04-.21,2.96-.39v1.73c-.92,.14-1.93,.25-2.96,.32,.04,1.77,.14,3.36,.2,4.72,1.48,.59,2.6,1.5,3.5,2.3l-.96,1.46Zm-4.26-2.75c-.54-.14-1.08-.23-1.66-.23-1.19,0-2,.52-2,1.25,0,.82,.79,1.23,1.93,1.23,1.32,0,1.73-.66,1.73-1.77v-.48Zm15.99-1.09c-.23-.43-.7-1.18-1.17-1.86v7.66h-1.61v-7.31c-.61,1.64-1.39,3.23-2.15,4.27-.16-.48-.56-1.16-.81-1.55,.97-1.23,2-3.38,2.63-5.25h-2.38v-1.55h2.71v-2.45c-.78,.16-1.57,.29-2.31,.38-.07-.36-.29-.89-.49-1.27,1.93-.3,4.15-.8,5.41-1.36l1.17,1.23c-.65,.25-1.39,.48-2.18,.68v2.79h2.07v1.55h-2.07v.52c.5,.46,1.84,1.93,2.16,2.32l-.99,1.2Zm7.61,4.16c.59,0,.68-.46,.76-2.64,.36,.29,1.03,.57,1.48,.68-.18,2.64-.59,3.48-2.09,3.48h-2.24c-1.62,0-2.07-.52-2.09-2.3-.79,.71-1.66,1.38-2.61,1.98-.23-.36-.78-.91-1.19-1.18,1.44-.89,2.71-1.93,3.8-3.09v-7.97h1.62v5.98c1.79-2.52,2.96-5.48,3.66-8.73l1.55,.34c-.4,1.75-.9,3.38-1.52,4.91l.78-.21c.85,1.64,1.53,3.79,1.7,5.22l-1.53,.43c-.11-1.25-.63-3.09-1.28-4.63-.88,1.96-1.98,3.73-3.35,5.3v1.57c0,.73,.11,.86,.7,.86h1.86Zm-7.43-3.2c.81-1.32,1.19-3.43,1.32-5.34l1.35,.25c-.18,1.98-.5,4.32-1.37,5.7l-1.3-.61Zm6.28-7.66c-.7-.84-2.22-1.98-3.52-2.71l1.06-1.05c1.28,.68,2.83,1.73,3.57,2.57l-1.12,1.2Zm16.84,6.14c-.87,0-1.46-.07-1.86-.29-1.42,.62-2.94,1.14-4.45,1.55-.18-.36-.65-1.04-.96-1.36,1.64-.37,3.26-.88,4.74-1.5v-3.57h1.52v2.88c2.07-1.04,3.84-2.38,5.03-3.98l1.44,.64c-1.32,1.75-3.14,3.16-5.19,4.3h2.99c.77,0,.9-.21,.97-1.55,.34,.23,.96,.43,1.37,.52-.18,1.89-.63,2.36-2.18,2.36h-3.43Zm-3.35-4.43c-.47,1.3-1.17,2.64-2.43,3.43l-1.3-.86c1.15-.71,1.95-1.89,2.34-3.09l1.39,.52Zm-1.55-.59h-1.64v-3.57h6.69v-1.43h1.71v1.43h6.82v3.57h-1.71v-2.07h-11.87v2.07Zm10.57,6.2h1.68v5.16h-1.68v-.7h-9.09v.73h-1.66v-5.2h1.66v2.93h3.59v-3.88h1.7v3.88h3.81v-2.93Zm-4.31-5.41c-.67-.59-1.98-1.38-3.08-1.86l.81-.95c1.08,.43,2.45,1.14,3.14,1.73l-.87,1.07Zm4.89-.61c1.15,.95,2.51,2.32,3.1,3.29l-1.28,.89c-.56-.95-1.88-2.38-3.03-3.38l1.21-.8Zm15.29-4.05c-.09,.37-.2,.82-.27,1.21-.09,.54-.25,1.39-.42,2.2,.72-.05,1.37-.09,1.79-.09,1.71,0,3.03,.71,3.03,3.18,0,2.09-.27,4.89-1.01,6.41-.6,1.2-1.52,1.54-2.76,1.54-.69,0-1.53-.12-2.13-.27l-.31-1.86c.74,.21,1.71,.37,2.2,.37,.63,0,1.14-.16,1.46-.84,.54-1.11,.79-3.32,.79-5.16,0-1.52-.69-1.77-1.82-1.77-.36,0-.96,.04-1.62,.09-.65,2.61-1.91,6.66-3.68,9.48l-1.86-.73c1.79-2.36,3.07-6.16,3.7-8.55-.81,.09-1.53,.16-1.95,.21-.47,.05-1.26,.16-1.77,.25l-.18-1.93c.61,.04,1.12,.02,1.73,0,.58-.02,1.53-.09,2.52-.18,.25-1.3,.43-2.64,.43-3.79l2.11,.21Zm6.42,2.3c1.08,1.61,2.4,4.47,2.94,5.98l-1.79,.84c-.5-1.89-1.86-5-3.12-6.5l1.68-.73c.09,.12,.18,.25,.29,.39-.36-.71-.94-1.79-1.44-2.46l1.17-.48c.45,.64,1.1,1.77,1.46,2.46l-1.19,.5Zm2.09-.77c-.38-.77-.96-1.79-1.48-2.46l1.17-.48c.47,.66,1.15,1.79,1.5,2.45l-1.19,.5Zm17.86,2.52c-.11,.23-.23,.66-.34,.98,2.16,.64,3.52,2.25,3.52,4.25,0,2.52-1.62,4.82-5.86,5.48l-.96-1.48c3.32-.36,5.05-2.04,5.05-4.09,0-1.21-.78-2.3-2.25-2.77-.99,2.46-2.42,4.36-3.86,5.57,.13,.48,.27,.95,.41,1.38l-1.64,.48c-.09-.27-.18-.55-.25-.86-.92,.5-1.95,.86-2.9,.86-1.25,0-2.25-.75-2.25-2.39,0-2.27,1.97-4.64,4.44-5.77,.04-.82,.11-1.64,.18-2.41h-.87c-.85,0-2.24-.07-2.99-.12l-.05-1.64c.61,.09,2.18,.23,3.1,.23h.97l.13-1.2c.02-.3,.05-.68,.04-.93l1.88,.05c-.09,.27-.16,.59-.22,.84-.07,.34-.14,.75-.22,1.18,2.24-.09,4.27-.32,6.17-.75l.02,1.64c-1.8,.3-4.18,.54-6.38,.64-.05,.61-.11,1.25-.16,1.91,.96-.25,1.97-.39,2.85-.39,.18,0,.34,0,.5,.02,.09-.32,.18-.84,.2-1.14l1.77,.43Zm-6.56,7.3c-.23-1.25-.4-2.63-.4-3.98-1.57,.96-2.69,2.54-2.69,3.77,0,.66,.29,.98,.92,.98s1.37-.27,2.16-.77Zm1.19-4.27c0,1.11,.11,2.14,.27,3.09,1.03-1,1.97-2.27,2.67-3.98h-.11c-1.08,0-2.04,.21-2.83,.46v.43Zm18.71-7.38c-.32,1.11-.67,3.25-.78,4.38,.78-1.62,2.51-3.52,4.65-3.52,2.43,0,4.24,2.38,4.24,6.18,0,4.93-3.12,7.2-7.66,8.02l-1.08-1.61c3.91-.61,6.83-2.04,6.83-6.41,0-2.75-.92-4.55-2.63-4.55-2.16,0-4.15,3.18-4.29,5.5-.07,.59-.05,1.2,.05,2.04l-1.75,.12c-.09-.66-.22-1.7-.22-2.86,0-1.66,.31-4.09,.54-5.7,.07-.59,.13-1.2,.14-1.66l1.95,.07Zm27.5,14.06c-1.01-.93-2.38-1.93-3.98-2.57,0,.36,.02,.66,.02,.91,0,1.34-.97,2.57-3.3,2.57-2.71,0-4.17-.98-4.17-2.77,0-1.68,1.61-2.86,4.27-2.86,.45,0,.88,.04,1.32,.07-.04-.66-.05-1.38-.07-2.02h-.97c-1.14,0-3.16-.09-4.4-.23l.02-1.68c1.12,.21,3.32,.34,4.4,.34h.92v-2.23h-.88c-1.19,0-3.01-.12-4.06-.27v-1.63c1.1,.2,2.89,.34,4.04,.34h.92v-1c0-.32-.04-.84-.07-1.13h1.91c-.04,.32-.09,.71-.11,1.2,0,.2-.02,.52-.02,.88,1.5-.07,2.89-.21,4.45-.45l.02,1.63c-1.3,.12-2.79,.29-4.49,.36v2.25c1.77-.09,3.34-.25,4.87-.46l.02,1.68c-1.66,.2-3.14,.3-4.85,.37,.02,.8,.07,1.64,.13,2.41,2.31,.64,4.07,1.89,5.1,2.73l-1.03,1.55Zm-5.79-3.11c-.52-.09-1.05-.14-1.61-.14-1.52,0-2.33,.57-2.33,1.3s.67,1.27,2.2,1.27c1.01,0,1.75-.29,1.75-1.43,0-.25,0-.59-.02-1Zm27.64-7.16c-1.06-.05-2.74-.09-5.34-.09,.02,.95,.02,1.98,.02,2.77,.41,.64,.63,1.45,.63,2.36,0,2.36-1.26,5.13-5.5,6.34l-1.53-1.5c2.09-.46,3.73-1.23,4.6-2.55-.36,.16-.77,.25-1.24,.25-1.44,0-3.01-1.07-3.01-3.09,0-1.86,1.53-3.18,3.34-3.18,.36,0,.69,.04,.99,.13l-.02-1.5c-2.71,.04-5.63,.14-7.85,.29l-.05-1.71c2.02-.02,5.34-.12,7.88-.16-.02-.37-.02-.7-.04-.89-.04-.45-.09-1.04-.14-1.29h2.06c-.04,.23-.09,1.04-.09,1.29-.02,.21-.02,.52-.02,.88h5.34l-.02,1.68Zm-8.04,6.02c.92,0,1.61-.73,1.37-2.41-.29-.57-.79-.82-1.39-.82-.81,0-1.61,.61-1.61,1.66,0,.98,.76,1.57,1.62,1.57ZM1.23,0V33.72H0V0H1.23ZM51.22,28.97c2.35,0,2.79-.4,3.06-2.6,.85,.51,2.32,1.01,3.27,1.18-.54,3.64-1.7,4.55-6.1,4.55h-10.96c-5.82,0-7.35-.98-7.35-4.82v-9.1h-1.29v1.21c0,3.41-.54,9.34-4.56,13.35-.48-.84-1.5-2.16-2.25-2.77,3.23-3.27,3.61-7.86,3.61-10.72v-1.08h-2.25V4.69h4.46c.34-1.21,.71-2.7,.85-3.81l4.05,.47c-.41,1.21-.82,2.36-1.16,3.34h6.06v13.49h-4.12v6.07l.41-.03c.34-1.72,.68-4.05,.82-5.7l2.79,.54c-.48,1.59-.95,3.41-1.36,4.86l1.43-.17c-.2-.64-.44-1.28-.65-1.85l1.91-.61c.71,1.65,1.36,3.78,1.57,5.13l-1.98,.74c-.07-.4-.17-.88-.27-1.42-1.5,.4-2.83,.74-4.19,1.08l-.48-1.35v1.75c0,1.48,.54,1.75,3.95,1.75h10.73ZM29.59,10.08h2.35v-2.26h-2.35v2.26Zm0,4.99h2.35v-2.29h-2.35v2.29Zm7.76-7.25h-2.49v2.26h2.49v-2.26Zm0,4.96h-2.49v2.29h2.49v-2.29Zm10.21,6.17c-1.02,2.33-2.28,4.59-3.71,6-.31-1.05-.95-2.66-1.5-3.64,1.36-1.42,2.89-3.84,3.78-6.04h-3.92v-3.41h5.35v-3.07h-4.56v-3.3h4.56V1.55h3.64v3.95h4.6v3.3h-4.6v3.07h5.35v3.41h-3.64c1.16,2.6,2.93,5.23,4.56,6.78-.82,.64-2.04,1.89-2.69,2.77-1.26-1.62-2.55-4.18-3.58-6.78v9.24h-3.64v-8.33ZM82.95,0V33.72h-1.23V0h1.23Zm48.59,3.34c-.1,.51-.17,1.96-.2,2.87-.03,1.32-.07,2.5-.1,3.61,.92-.07,1.77-.13,2.55-.17,.92-.07,2.25-.17,3.23-.24v4.11c-.58-.03-2.35,0-3.27,.03-.71,.03-1.6,.07-2.59,.13-.1,2.53-.24,5.26-.51,6.68-.34,1.75-1.19,2.19-2.93,2.19-1.19,0-3.88-.3-5.07-.51l.1-3.68c1.06,.2,2.42,.4,3.1,.4s.95-.13,1.06-.78c.14-.91,.2-2.43,.24-4.01-2.96,.24-6.27,.54-9.16,.84-.03,3.07-.07,6.14,0,7.55,.1,3.27,.37,4.01,5.45,4.01,3.3,0,7.56-.4,10.08-.88l-.17,4.59c-2.28,.27-6.4,.54-9.6,.54-8.75,0-9.81-1.82-9.94-7.59-.03-1.42-.03-4.65-.03-7.79l-2.28,.24c-1.06,.13-3.17,.47-4.05,.61l-.44-4.28c.95,0,2.52-.07,4.22-.2l2.55-.24v-3.37c0-1.38-.1-2.53-.27-3.71h4.77c-.14,1.11-.2,2.06-.2,3.47,0,.78,0,1.89-.03,3.2,2.86-.27,6.13-.57,9.19-.84v-3.78c0-.84-.14-2.43-.24-3.03h4.56Zm30.92-3.34V33.72h-1.23V0h1.23Zm48.56,6.54c-.82,.51-1.6,1.01-2.35,1.52-1.8,1.25-5.35,4.22-7.46,5.9,1.12-.3,2.08-.37,3.17-.37,5.72,0,10.08,3.54,10.08,8.4,0,5.26-4.05,9.44-12.19,9.44-4.7,0-8.24-2.12-8.24-5.46,0-2.7,2.49-5.19,6.06-5.19,4.15,0,6.67,2.53,7.18,5.7,1.84-.98,2.76-2.53,2.76-4.55,0-3-3.06-5.02-6.98-5.02-5.18,0-8.55,2.73-12.16,6.78l-3.06-3.14c2.38-1.92,6.44-5.33,8.44-6.95,1.87-1.55,5.38-4.35,7.05-5.8-1.74,.03-6.37,.24-8.14,.37-.92,.03-1.98,.13-2.76,.27l-.14-4.35c.95,.1,2.11,.17,3.06,.17,1.77,0,8.99-.17,10.9-.34,1.4-.1,2.18-.24,2.59-.34l2.18,2.97Zm-7.63,21.01c-.2-2.16-1.46-3.57-3.3-3.57-1.26,0-2.08,.74-2.08,1.58,0,1.25,1.43,2.09,3.41,2.09,.71,0,1.36-.03,1.97-.1ZM241.54,0V33.72h-1.23V0h1.23Zm55.3,4.01c-.92,7.89-2.96,14.2-5.99,19.09,1.94,2.53,4.32,4.59,7.25,5.97-.95,.78-2.28,2.39-2.89,3.51-2.79-1.52-5.11-3.47-7.01-5.87-2.08,2.36-4.46,4.32-7.18,5.83-.61-1.01-1.74-2.63-2.69-3.41v3.44h-3.95v-8.43c-2.72,.78-5.48,1.48-7.8,2.09l-.92-4.11c.71-.13,1.5-.3,2.35-.47V5.02h3.78v15.75l2.59-.61V1.32h3.95V29.03c2.79-1.38,5.28-3.47,7.35-6.1-2.32-4.11-3.92-9.07-5.07-14.67l3.88-.71c.82,4.18,2.04,8.09,3.78,11.43,1.8-3.34,3.17-7.25,3.95-11.67h-12.7V3.37h13.89l.68-.13,2.76,.78Zm26.43-4.01V33.72h-1.23V0h1.23Zm28.98,21.41c-.34,3.17-1.06,6.54-2.04,8.7-.71-.44-2.21-1.15-3.1-1.45,.99-1.99,1.53-4.99,1.8-7.82l3.34,.57Zm26.39,7.08c0,1.82-.31,2.83-1.46,3.44-1.16,.61-2.76,.71-5.07,.71-.14-1.05-.58-2.7-1.12-3.68,1.4,.07,2.96,.03,3.44,.03,.44,0,.58-.13,.58-.61v-5.5l-1.87,1.79c-.65-1.69-1.77-3.98-2.96-6.24-.85,2.66-2.11,4.96-4.02,6.78-.31-.54-.95-1.28-1.6-1.85v9.17h-3.57v-5.8l-2.69,.98c-.31-1.69-1.19-4.28-1.97-6.27l2.86-.88c.68,1.52,1.36,3.34,1.81,4.89v-6.17l-2.55,1.15c-.1-.51-.24-1.08-.44-1.72l-1.74,.13v13.79h-3.51v-13.56l-4.94,.3-.34-3.47,2.45-.1c.51-.64,1.06-1.38,1.6-2.16-.99-1.45-2.62-3.24-4.02-4.59l1.94-2.73c.24,.2,.51,.44,.78,.67,.95-1.85,1.91-4.08,2.49-5.87l3.51,1.28c-1.23,2.29-2.59,4.92-3.81,6.78,.41,.47,.82,.91,1.16,1.35,1.16-1.89,2.25-3.81,3.03-5.46l3.3,1.52c-1.87,2.93-4.22,6.34-6.37,9.07l3.27-.13c-.37-.84-.78-1.69-1.19-2.43l2.69-1.11c1.06,1.85,2.11,4.15,2.69,5.97V6.95h7.08c.03-1.85,.07-3.78,.07-5.83h3.78c-.03,2.02-.03,3.98-.14,5.83h6.88V28.5Zm-14.1-6.88c2.15-2.77,3-6.47,3.34-10.99h-3.34v10.99Zm7.01-10.99c-.07,.91-.17,1.82-.31,2.7,1.33,2.16,2.72,4.62,3.75,6.74V10.62h-3.44ZM405,0V33.72h-1.23V0h1.23Z"/></g></svg>