<?xml version="1.0" encoding="UTF-8"?><svg id="_レイヤー_2" xmlns="http://www.w3.org/2000/svg" xmlns:xlink="http://www.w3.org/1999/xlink" viewBox="0 0 1366 7394"><defs><style>.cls-1{fill:#fff;}.cls-2{fill:#eee9e6;}.cls-3{clip-path:url(#clippath);}.cls-4{fill:none;}.cls-5{fill:#f7f6f2;}.cls-6{fill:#e9e4e1;}</style><clipPath id="clippath"><polygon class="cls-4" points="0 0 0 7394 1366 7394 1366 710 0 0"/></clipPath></defs><g id="_コンテンツ"><g class="cls-3"><rect class="cls-1" x="-.16" y="-1086" width="1365.37" height="1692"/><rect class="cls-6" x="0" y="-3419" width="1366" height="15335"/><polygon class="cls-5" points="1366 710 0 0 0 7394 1366 7394 1366 710"/><polygon class="cls-1" points="0 1899.38 0 2556.38 1366 1846.38 1366 1189.38 0 1899.38"/><polygon class="cls-1" points="0 3719.38 0 4376.38 1366 3666.38 1366 3009.38 0 3719.38"/><polygon class="cls-1" points="0 6017.38 0 6674.38 1366 5964.38 1366 5307.38 0 6017.38"/><polygon class="cls-2" points="1366 1189.38 0 1899.38 0 2114.38 1366 2824.38 1366 1189.38"/><polygon class="cls-2" points="1366 3009.38 0 3719.38 0 3934.38 1366 4644.38 1366 3009.38"/><polygon class="cls-2" points="1366 5307.38 0 6017.38 0 6232.38 1366 6942.38 1366 5307.38"/><polygon class="cls-1" points="1366 -153 1366 710 0 0 0 -863 1366 -153"/></g></g></svg>