<?xml version="1.0" encoding="UTF-8"?><svg id="_レイヤー_2" xmlns="http://www.w3.org/2000/svg" viewBox="0 0 45 44.96"><defs><style>.cls-1{fill:#fff;}</style></defs><g id="_レイヤー_1-2"><path class="cls-1" d="M44.14,34.07c1.01,.83,1.15,2.33,.32,3.34l-.47,.57-.75,.91-.66,.8-.24,.29-2.83,3.43c-.83,1-2.07,1.57-3.36,1.54-4.18-.12-13.85-1.88-24.83-14.09C2.91,21.53,.66,13.28,.05,9.39c-.22-1.41,.29-2.83,1.35-3.79l3.33-2.99,.45-.41,.88-.79,.9-.81c.97-.87,2.47-.79,3.35,.18l6.49,7.23c.87,.97,.79,2.47-.18,3.35l-.89,.8-.88,.79-4.87,4.38c1.69,2.81,3.76,5.61,6.18,8.31,3.58,3.98,7.48,7.22,11.36,9.59,.01,0,.03,.02,.04,.03l4.57-5.54,.75-.91,.46-.55c.83-1.01,2.33-1.15,3.34-.32l7.46,6.15Z"/></g></svg>