<?xml version="1.0" encoding="UTF-8"?><svg id="_レイヤー_2" xmlns="http://www.w3.org/2000/svg" viewBox="0 0 290 83"><defs><style>.cls-1{fill:#fff;}</style></defs><g id="_コンテンツ"><g><path class="cls-1" d="M0,81.6V1.4H28.81c5.49,0,10.09,1.01,13.82,3.04,3.72,2.03,6.51,4.83,8.35,8.42,1.84,3.59,2.76,7.72,2.76,12.39,0,4.91-1.04,9.22-3.12,12.92-2.08,3.7-4.96,6.57-8.64,8.59-3.69,2.03-8.08,3.04-13.17,3.04H13.52v31.8H0ZM13.52,37.88h14.23c3.84,0,6.82-1.13,8.94-3.39,2.12-2.26,3.17-5.34,3.17-9.23,0-3.66-1.06-6.57-3.17-8.71-2.12-2.14-5.1-3.22-8.94-3.22H13.52v24.55Z"/><path class="cls-1" d="M95.61,83c-10.27,0-18.33-3.41-24.17-10.23-5.84-6.82-8.76-17.24-8.76-31.27s2.92-24.55,8.76-31.33C77.28,3.39,85.34,0,95.61,0s18.33,3.39,24.17,10.17c5.84,6.78,8.76,17.22,8.76,31.33s-2.92,24.45-8.76,31.27c-5.84,6.82-13.9,10.23-24.17,10.23Zm0-11.69c6.19,0,10.92-2.32,14.17-6.95,3.25-4.64,4.88-11.28,4.88-19.93v-5.85c0-8.65-1.63-15.29-4.88-19.93-3.25-4.64-7.98-6.96-14.17-6.96s-10.82,2.32-14.11,6.96c-3.29,4.64-4.94,11.28-4.94,19.93v5.85c0,8.65,1.65,15.3,4.94,19.93,3.29,4.64,8,6.95,14.11,6.95Z"/><path class="cls-1" d="M141,81.6V1.4h13.41V81.6h-13.41Z"/><path class="cls-1" d="M169.69,81.6V1.4h11.88l26.58,46.29c.55,.78,1.14,1.87,1.76,3.27,.63,1.4,1.41,3.2,2.35,5.38l.35-.35c0-2.18-.02-3.92-.06-5.2-.04-1.29-.06-2.2-.06-2.75V1.4h12V81.6h-11.76l-26.81-46.53c-.39-.78-.92-1.85-1.59-3.21-.67-1.36-1.51-3.17-2.53-5.44l-.47,.35c.08,1.95,.16,3.57,.24,4.85,.08,1.29,.12,2.32,.12,3.1v46.88h-12Z"/><path class="cls-1" d="M255.9,81.6V13.33h-20.7V1.4h54.8V13.33h-20.7V81.6h-13.41Z"/></g></g></svg>