<?xml version="1.0" encoding="UTF-8"?><svg id="_レイヤー_2" xmlns="http://www.w3.org/2000/svg" viewBox="0 0 335 115"><defs><style>.cls-1{fill:#fff;}</style></defs><g id="_コンテンツ"><g><g><path class="cls-1" d="M0,48.16V.83H15.13c5.78,0,10.32,1.92,13.62,5.76,3.3,3.84,4.95,9.58,4.95,17.21,0,8.1-1.65,14.18-4.95,18.25-3.3,4.07-7.84,6.11-13.62,6.11H0Zm7.91-7.04h6.46c3.44,0,6.17-1.3,8.18-3.9,2.02-2.6,3.03-6.5,3.03-11.69v-3.45c0-4.74-1.01-8.29-3.03-10.66-2.02-2.37-4.74-3.55-8.18-3.55H7.91V41.12Z"/><path class="cls-1" d="M40.37,48.16V.83h29.78V7.87h-21.87v12.56h18.84v7.04h-18.84v13.66h22.28v7.04h-30.19Z"/><path class="cls-1" d="M91.81,48.98c-2.89,0-5.56-.52-8.01-1.55-2.45-1.03-4.43-2.63-5.91-4.79-1.49-2.16-2.24-4.9-2.24-8.21,0-.23,.01-.49,.03-.79,.02-.3,.03-.52,.03-.66h8.12s-.01,.22-.03,.52c-.02,.3-.03,.54-.03,.72,0,2.48,.74,4.42,2.24,5.8,1.49,1.38,3.47,2.07,5.95,2.07,2.84,0,4.91-.62,6.19-1.86,1.28-1.24,1.93-2.74,1.93-4.48,0-1.66-.43-2.98-1.27-3.97-.85-.99-1.96-1.8-3.34-2.45-1.38-.64-2.9-1.23-4.57-1.76-1.67-.53-3.36-1.11-5.05-1.76-1.7-.64-3.23-1.48-4.61-2.52-1.38-1.04-2.49-2.37-3.34-4-.85-1.63-1.27-3.71-1.27-6.24,0-2.94,.71-5.38,2.13-7.31,1.42-1.93,3.31-3.37,5.67-4.31,2.36-.94,4.92-1.41,7.67-1.41s5.33,.47,7.6,1.41c2.27,.94,4.09,2.43,5.47,4.45,1.38,2.02,2.06,4.65,2.06,7.86v.83h-8.05v-.76c0-2.16-.64-3.85-1.93-5.07-1.28-1.22-3-1.83-5.16-1.83s-4.04,.49-5.36,1.48c-1.33,.99-1.99,2.36-1.99,4.11,0,1.47,.42,2.66,1.27,3.55,.85,.9,1.97,1.63,3.37,2.21,1.4,.58,2.93,1.12,4.61,1.62,1.67,.51,3.35,1.08,5.02,1.72,1.67,.64,3.2,1.48,4.57,2.52,1.38,1.04,2.49,2.35,3.34,3.93,.85,1.59,1.27,3.6,1.27,6.04,0,3.63-.7,6.53-2.1,8.69-1.4,2.16-3.34,3.74-5.81,4.73-2.48,.99-5.3,1.48-8.46,1.48Z"/><path class="cls-1" d="M114.51,48.16V.83h7.84V48.16h-7.84Z"/><path class="cls-1" d="M146.97,48.98c-5.87,0-10.4-2-13.58-6-3.19-4-4.78-10.16-4.78-18.49s1.72-14.49,5.16-18.49c3.44-4,8.28-6,14.51-6,3.21,0,6.16,.66,8.84,1.97,2.68,1.31,4.82,3.24,6.43,5.8,1.6,2.55,2.41,5.72,2.41,9.49h-8.05c0-3.49-.94-6.09-2.82-7.8-1.88-1.7-4.22-2.55-7.02-2.55-3.76,0-6.59,1.37-8.49,4.11-1.9,2.74-2.85,6.66-2.85,11.76v3.45c0,5.15,.94,9.08,2.82,11.8,1.88,2.71,4.7,4.07,8.46,4.07,3.12,0,5.55-1.06,7.29-3.17,1.74-2.12,2.61-5.08,2.61-8.9v-3.45l3.3,3.04h-14.44v-6.83h19.19v25.39h-5.09l-1.44-5.24c-1.51,2.02-3.34,3.54-5.47,4.55-2.13,1.01-4.46,1.52-6.98,1.52Z"/><path class="cls-1" d="M173.79,48.16V.83h6.95l15.54,27.32c.32,.46,.66,1.1,1.03,1.93,.37,.83,.82,1.89,1.38,3.17l.21-.21c0-1.29-.01-2.31-.03-3.07-.02-.76-.03-1.3-.03-1.62V.83h7.02V48.16h-6.88l-15.68-27.46c-.23-.46-.54-1.09-.93-1.9-.39-.8-.88-1.87-1.48-3.21l-.28,.21c.04,1.15,.09,2.1,.14,2.86,.04,.76,.07,1.37,.07,1.83v27.67h-7.02Z"/><path class="cls-1" d="M229.5,48.16V.83h7.91V40.84h19.67v7.31h-27.58Z"/><path class="cls-1" d="M258.25,48.16L273.38,.83h9.35l15.13,47.33h-8.12l-3.03-9.73h-17.88l-2.96,9.73h-7.63Zm12.79-16.83h13.48l-5.3-17.59c-.18-.69-.39-1.52-.62-2.48-.23-.97-.46-2.14-.69-3.52h-.27c-.23,1.47-.45,2.68-.65,3.62-.21,.94-.4,1.74-.58,2.38l-5.36,17.59Z"/><path class="cls-1" d="M301.85,48.16V.83h19.46c2.43,0,4.6,.49,6.5,1.48,1.9,.99,3.39,2.35,4.47,4.07,1.08,1.72,1.62,3.76,1.62,6.11,0,2.71-.7,5.01-2.1,6.9-1.4,1.89-3.11,3.2-5.12,3.93v.28c2.34,.74,4.31,2.15,5.91,4.24,1.6,2.09,2.41,4.66,2.41,7.69,0,2.67-.63,4.94-1.89,6.83-1.26,1.89-2.92,3.32-4.99,4.31-2.06,.99-4.33,1.48-6.81,1.48h-19.46Zm7.84-27.73h9.42c2.15,0,3.82-.64,4.99-1.93,1.17-1.29,1.75-2.78,1.75-4.48,0-2.02-.58-3.55-1.75-4.59-1.17-1.03-2.69-1.55-4.57-1.55h-9.84v12.56Zm0,20.7h10.39c1.97,0,3.61-.56,4.92-1.69,1.31-1.13,1.96-2.77,1.96-4.93,0-1.93-.62-3.59-1.86-4.97s-3.05-2.07-5.43-2.07h-9.97v13.66Z"/></g><g><path class="cls-1" d="M78.72,115c-2.89,0-5.56-.52-8.01-1.55-2.45-1.03-4.43-2.63-5.91-4.79-1.49-2.16-2.24-4.9-2.24-8.21,0-.23,.01-.49,.03-.79,.02-.3,.03-.52,.03-.66h8.12s-.01,.22-.03,.52c-.02,.3-.03,.54-.03,.72,0,2.48,.74,4.42,2.24,5.8,1.49,1.38,3.47,2.07,5.95,2.07,2.84,0,4.91-.62,6.19-1.86,1.28-1.24,1.93-2.74,1.93-4.48,0-1.66-.43-2.98-1.27-3.97-.85-.99-1.96-1.8-3.34-2.45-1.38-.64-2.9-1.23-4.57-1.76-1.67-.53-3.36-1.11-5.05-1.76-1.7-.64-3.23-1.48-4.61-2.52-1.38-1.04-2.49-2.37-3.34-4-.85-1.63-1.27-3.71-1.27-6.24,0-2.94,.71-5.38,2.13-7.31,1.42-1.93,3.31-3.37,5.67-4.31,2.36-.94,4.92-1.41,7.67-1.41s5.33,.47,7.6,1.41c2.27,.94,4.09,2.43,5.47,4.45,1.38,2.02,2.06,4.65,2.06,7.86v.83h-8.05v-.76c0-2.16-.64-3.85-1.93-5.07-1.28-1.22-3-1.83-5.16-1.83s-4.04,.49-5.36,1.48c-1.33,.99-1.99,2.36-1.99,4.11,0,1.47,.42,2.66,1.27,3.55,.85,.9,1.97,1.63,3.37,2.21,1.4,.58,2.93,1.12,4.61,1.62,1.67,.51,3.35,1.08,5.02,1.72,1.67,.64,3.2,1.48,4.57,2.52,1.38,1.04,2.49,2.35,3.34,3.93,.85,1.59,1.27,3.6,1.27,6.04,0,3.63-.7,6.53-2.1,8.69-1.4,2.16-3.34,3.74-5.81,4.73-2.48,.99-5.3,1.48-8.46,1.48Z"/><path class="cls-1" d="M110.84,114.17v-40.29h-12.1v-7.04h32.05v7.04h-12.1v40.29h-7.84Z"/><path class="cls-1" d="M152.59,115c-6.01,0-10.72-2.01-14.13-6.04-3.42-4.02-5.12-10.18-5.12-18.46s1.71-14.49,5.12-18.49c3.42-4,8.13-6,14.13-6s10.72,2,14.13,6c3.42,4,5.12,10.17,5.12,18.49s-1.71,14.43-5.12,18.46c-3.42,4.03-8.13,6.04-14.13,6.04Zm0-6.9c3.62,0,6.38-1.37,8.29-4.1,1.9-2.74,2.85-6.66,2.85-11.76v-3.45c0-5.11-.95-9.03-2.85-11.76-1.9-2.74-4.67-4.11-8.29-4.11s-6.33,1.37-8.25,4.11c-1.93,2.74-2.89,6.66-2.89,11.76v3.45c0,5.11,.96,9.03,2.89,11.76,1.93,2.74,4.68,4.1,8.25,4.1Z"/><path class="cls-1" d="M178.51,114.17v-47.33h19.53c4.72,0,8.29,1.25,10.69,3.76,2.41,2.51,3.61,5.72,3.61,9.62,0,2.9-.72,5.41-2.17,7.52-1.44,2.12-3.4,3.66-5.88,4.62l9.22,21.8h-8.6l-8.18-20.15h-10.32v20.15h-7.91Zm7.91-27.18h10.73c2.25,0,3.94-.6,5.09-1.79,1.15-1.2,1.72-2.85,1.72-4.97,0-1.98-.55-3.53-1.65-4.66-1.1-1.13-2.75-1.69-4.95-1.69h-10.94v13.11Z"/><path class="cls-1" d="M214.55,114.17l15.13-47.33h9.35l15.13,47.33h-8.12l-3.03-9.73h-17.88l-2.96,9.73h-7.63Zm12.79-16.83h13.48l-5.3-17.59c-.18-.69-.39-1.52-.62-2.48-.23-.97-.46-2.14-.69-3.52h-.27c-.23,1.47-.45,2.68-.65,3.62-.21,.94-.4,1.74-.58,2.38l-5.36,17.59Z"/><path class="cls-1" d="M274.94,115c-5.87,0-10.4-2-13.58-6-3.19-4-4.78-10.16-4.78-18.49s1.72-14.49,5.16-18.49c3.44-4,8.28-6,14.51-6,3.21,0,6.16,.66,8.84,1.97,2.68,1.31,4.82,3.24,6.43,5.8,1.6,2.55,2.41,5.72,2.41,9.49h-8.05c0-3.49-.94-6.09-2.82-7.8-1.88-1.7-4.22-2.55-7.02-2.55-3.76,0-6.59,1.37-8.49,4.11-1.9,2.74-2.85,6.66-2.85,11.76v3.45c0,5.15,.94,9.08,2.82,11.8,1.88,2.71,4.7,4.07,8.46,4.07,3.12,0,5.55-1.06,7.29-3.17,1.74-2.12,2.61-5.08,2.61-8.9v-3.45l3.3,3.04h-14.44v-6.83h19.19v25.39h-5.09l-1.44-5.24c-1.51,2.02-3.34,3.54-5.47,4.55-2.13,1.01-4.46,1.52-6.98,1.52Z"/><path class="cls-1" d="M301.76,114.17v-47.33h29.78v7.04h-21.87v12.56h18.84v7.04h-18.84v13.66h22.28v7.04h-30.19Z"/></g><g><polygon class="cls-1" points="4.92 114.42 3.5 113 50.19 66.17 51.61 67.58 4.92 114.42"/><polygon class="cls-1" points="50.19 114.42 3.5 67.58 4.92 66.17 51.61 113 50.19 114.42"/></g></g></g></svg>