<?xml version="1.0" encoding="UTF-8"?><svg id="_レイヤー_2" xmlns="http://www.w3.org/2000/svg" viewBox="0 0 165 54"><defs><style>.cls-1{fill:#7d7b6f;}.cls-2{fill:#a9cd3f;}</style></defs><g id="_コンテンツ"><g><g><path class="cls-1" d="M59.15,8.99c-.55,.21-1.11,.45-2.11,.45-1.27,0-2.31-1.04-2.31-2.31V3.85c0-1.28,1.04-2.31,2.31-2.31,1.02,0,1.75,.36,2.22,1.09l1.21-.97C59.87,.81,58.84,0,57.04,0,54.91,0,53.19,1.73,53.19,3.85v3.28c0,2.12,1.73,3.85,3.85,3.85,1.81,0,2.2-.78,3.65-.78V5.9h-1.54v3.09Z"/><rect class="cls-1" x="39.47" y=".12" width="1.63" height="10.74"/><path class="cls-1" d="M47.48,4.73c-2.15-.35-2.15-1.29-2.15-1.65,0-.92,.81-1.54,2.02-1.54,1.02,0,1.77,.34,2.27,.71l1.02-1.16c-.72-.56-1.8-1.09-3.3-1.09-2.06,0-3.56,1.3-3.56,3.08,0,2.27,2.15,2.96,3.44,3.17,2.15,.35,2.15,1.29,2.15,1.65,0,.92-.81,1.54-2.02,1.54-1.36,0-2.23-.6-2.7-1.06l-1.02,1.15c.7,.67,1.9,1.45,3.72,1.45,2.06,0,3.56-1.3,3.56-3.08,0-2.27-2.15-2.96-3.44-3.17Z"/><path class="cls-1" d="M99.77,3.12c-1.88,0-3.4,1.53-3.4,3.41v1.01c0,1.88,1.53,3.41,3.4,3.41s3.4-1.53,3.4-3.41v-1.01c0-1.88-1.53-3.41-3.4-3.41Zm1.87,4.42c0,1.27-.84,2.03-1.87,2.03s-1.87-.76-1.87-2.03v-1.01c0-1.27,.84-2.03,1.87-2.03s1.87,.76,1.87,2.03v1.01Z"/><polygon class="cls-1" points="92.44 4.72 88.02 4.72 88.02 .12 86.49 .12 86.49 10.86 88.02 10.86 88.02 6.26 92.44 6.26 92.44 10.86 93.98 10.86 93.98 .12 92.44 .12 92.44 4.72"/><path class="cls-2" d="M80.51,3.12c-1.88,0-3.4,1.53-3.4,3.41v1.01c0,1.88,1.61,3.41,3.59,3.41,1.03,0,1.96-.42,2.61-1.08l-1.24-.95c-.36,.3-.85,.49-1.38,.49-1.08,0-1.97-.77-2.04-1.74h5.26s0,0,0,0h0v-1.14c0-1.88-1.53-3.41-3.4-3.41Zm0,1.54c.96,0,1.74,.72,1.85,1.65h-3.7c.11-.93,.9-1.65,1.85-1.65Z"/><path class="cls-1" d="M122.1,3.12c-1.88,0-3.4,1.53-3.4,3.41v1.01c0,1.88,1.61,3.41,3.59,3.41,1.03,0,1.96-.42,2.61-1.08l-1.24-.95c-.36,.3-.85,.49-1.38,.49-1.08,0-1.97-.77-2.04-1.74h5.26s0,0,0,0h0v-1.14c0-1.88-1.53-3.41-3.4-3.41Zm0,1.54c.96,0,1.74,.72,1.85,1.65h-3.7c.11-.93,.9-1.65,1.85-1.65Z"/><path class="cls-1" d="M113.59,3.12c-1.02,0-1.38,.41-2.51,.41-.92,0-1.13-.41-2.14-.41s-1.3,.41-2.6,.41c-.55,0-.77,0-.77,0v7.33h1.54V6.23c0-1.1,.7-1.72,1.56-1.72s1.56,.62,1.56,1.72v4.64h1.54V6.23c0-1.1,.7-1.72,1.56-1.72s1.56,.62,1.56,1.72v2.77c0,.51-.24,.96-.62,1.24l1.1,1.08c.64-.57,1.05-1.4,1.05-2.32v-3.04c0-1.47-1.1-2.83-2.82-2.83Z"/><path class="cls-2" d="M74.32,9.05l-1.25-2.84c1.2-.45,2.05-1.6,2.05-2.95,0-1.74-1.41-3.15-3.14-3.15h-4.35V10.86h1.54V6.42h2.32l1.44,3.26c.37,.85,1.08,1.44,1.9,1.7l.57-1.43c-.46-.11-.86-.42-1.07-.89Zm-5.16-7.39h2.82c.88,0,1.6,.72,1.6,1.61s-.72,1.61-1.6,1.61h-2.82V1.66Z"/></g><g><g><rect class="cls-1" x="57.46" y="28.56" width="3.66" height="17.2"/><rect class="cls-1" x="57.46" y="21.61" width="3.66" height="3.66"/></g><path class="cls-1" d="M28.92,28.36c-4.22,0-7.65,3.44-7.65,7.67v2.27c0,4.23,3.62,7.67,8.07,7.67,2.32,0,4.41-.94,5.88-2.43l-2.78-2.13c-.82,.68-1.9,1.1-3.1,1.1-2.44,0-4.43-1.73-4.59-3.92h11.83s0,0,0,0h0v-2.56c0-4.23-3.43-7.66-7.65-7.66Zm0,3.13c2.39,0,4.14,1.94,4.16,4.04h-8.33c.02-2.1,1.78-4.04,4.16-4.04Z"/><path class="cls-1" d="M93.17,31.46c1.93,0,3.5,1.39,3.5,3.87v6.22c0,1.14-.55,2.15-1.39,2.79l2.48,2.43c1.45-1.28,2.36-3.14,2.36-5.22v-6.83c0-3.3-2.48-6.36-6.35-6.36-2.35,0-2.93,.93-5.84,.93-1.23,0-1.73,0-1.73,0v16.47h3.45v-10.43c0-2.48,1.57-3.87,3.5-3.87Z"/><path class="cls-1" d="M73.39,45.96c1.55,0,2.99-.47,4.2-1.27v1.95c0,2.86-1.88,4.56-4.2,4.56-.06,0-.11,0-.16,0l2.27,2.81c3.2-.92,5.54-3.87,5.54-7.36V29.29h-1.51c-2.92,0-3.64-.93-6.14-.93-4.22,0-7.65,3.44-7.65,7.67v2.27c0,4.23,3.43,7.67,7.65,7.67Zm4.2-7.67c0,2.86-1.88,4.56-4.2,4.56s-4.2-1.7-4.2-4.56v-2.27c0-2.86,1.88-4.56,4.2-4.56s4.2,1.7,4.2,4.56v2.27Z"/><path class="cls-1" d="M46.91,35.45c-2.73-.45-2.73-1.5-2.73-1.9,0-1.05,.96-1.73,2.45-1.73,1.35,0,2.34,.44,3.02,.92l2.3-2.6c-1.17-.91-2.91-1.79-5.32-1.79-3.42,0-5.91,2.19-5.91,5.2,0,1.64,.73,4.51,5.63,5.32,2.73,.45,2.73,1.5,2.73,1.9,0,1.05-.96,1.73-2.45,1.73-1.86,0-3.03-.83-3.65-1.45l-2.29,2.59c1.13,1.07,3.05,2.33,5.94,2.33,3.42,0,5.91-2.19,5.91-5.2,0-1.64-.73-4.51-5.63-5.32Z"/><path class="cls-1" d="M8.2,21.61H0v24.15H8.2c4.77,0,8.65-3.89,8.65-8.66v-6.82c0-4.78-3.88-8.66-8.65-8.66Zm5.19,15.49c0,2.87-2.33,5.2-5.19,5.2H3.45V25.07h4.75c2.86,0,5.19,2.33,5.19,5.2v6.82Z"/><polygon class="cls-1" points="116.57 21.61 112.91 21.61 112.91 45.76 127.45 45.76 127.45 42.3 116.57 42.3 116.57 21.61"/><path class="cls-1" d="M144.55,45.03v-11.56c0-.85-.36-5.12-7.39-5.12-2.98,0-5.13,.99-6.51,1.94l2.31,2.61c.93-.55,2.31-1.09,4.2-1.09,2.98,0,3.95,.95,3.95,1.83,0,.78-.78,1.48-2.24,1.48h-2.63c-3.66,0-6.32,2.05-6.32,5.36,0,2.73,2.24,5.47,7.24,5.47,2.68,0,3.67-.93,6.14-.93h1.25Zm-3.46-5.16c0,.79,0,2.63-3.93,2.63-2.34,0-3.79-.79-3.79-2.01,0-1.57,1.56-1.89,2.87-1.89h2.63c.9,0,1.63-.15,2.22-.35v1.63Z"/><path class="cls-1" d="M151.21,45.03c2.91,0,3.62,.93,6.14,.93,4.22,0,7.65-3.44,7.65-7.67v-2.27c0-4.23-3.43-7.67-7.65-7.67-1.55,0-2.99,.46-4.2,1.26v-8.01s-3.45,0-3.45,0v23.43s1.51,0,1.51,0Zm6.14-2.17c-2.31,0-4.2-1.7-4.2-4.56v-2.27c0-2.86,1.88-4.56,4.2-4.56,2.31,0,4.2,1.7,4.2,4.56v2.27c0,2.86-1.88,4.56-4.2,4.56Z"/></g></g></g></svg>