<?xml version="1.0" encoding="UTF-8"?><svg id="_レイヤー_2" xmlns="http://www.w3.org/2000/svg" viewBox="0 0 350 80"><defs><style>.cls-1{fill:#fff;}</style></defs><g id="_コンテンツ"><g><path class="cls-1" d="M0,80L25.39,0h15.69l25.39,80h-13.62l-5.08-16.44H17.77l-4.96,16.44H0Zm21.46-28.45h22.62l-8.89-29.74c-.31-1.17-.65-2.57-1.04-4.2-.39-1.63-.77-3.62-1.15-5.95h-.46c-.39,2.49-.75,4.53-1.1,6.12-.35,1.59-.67,2.94-.98,4.02l-9,29.74Z"/><path class="cls-1" d="M81.12,80L63.47,0h13.39l10.39,51.31c.23,1.32,.48,2.94,.75,4.84,.27,1.91,.6,4.37,.98,7.41h.46c.31-2.8,.6-5.17,.87-7.11,.27-1.94,.56-3.65,.87-5.13L100.51,0h15.92l9.58,51.31c.23,1.32,.48,2.96,.75,4.9,.27,1.94,.56,4.39,.87,7.35h.46c.38-2.88,.71-5.27,.98-7.17,.27-1.9,.56-3.6,.87-5.07L140.44,0h11.54l-17.66,80h-14.19l-10.39-52.13c-.23-1.09-.46-2.37-.69-3.85-.23-1.48-.42-2.92-.58-4.31-.16-1.4-.35-2.99-.58-4.78h-.46c-.23,1.94-.44,3.62-.63,5.01-.19,1.4-.39,2.82-.58,4.26-.19,1.44-.4,2.66-.63,3.67l-10.16,52.13h-14.31Z"/><path class="cls-1" d="M148.98,80L174.37,0h15.69l25.39,80h-13.62l-5.08-16.44h-30l-4.96,16.44h-12.81Zm21.46-28.45h22.62l-8.89-29.74c-.31-1.17-.65-2.57-1.04-4.2-.39-1.63-.77-3.62-1.15-5.95h-.46c-.39,2.49-.75,4.53-1.1,6.12-.35,1.59-.67,2.94-.98,4.02l-9,29.74Z"/><path class="cls-1" d="M223.99,80V0h32.77c7.92,0,13.91,2.12,17.94,6.36,4.04,4.24,6.06,9.66,6.06,16.27,0,4.9-1.21,9.14-3.64,12.71-2.42,3.58-5.71,6.18-9.87,7.81l15.46,36.85h-14.43l-13.73-34.05h-17.31v34.05h-13.27Zm13.27-45.95h18c3.77,0,6.62-1.01,8.54-3.03,1.92-2.02,2.89-4.82,2.89-8.4,0-3.34-.92-5.97-2.77-7.87-1.85-1.9-4.62-2.86-8.31-2.86h-18.35v22.16Z"/><path class="cls-1" d="M293.46,80V0h25.39c9.69,0,17.31,3.25,22.85,9.74,5.54,6.49,8.31,16.19,8.31,29.1,0,13.68-2.77,23.97-8.31,30.85-5.54,6.88-13.15,10.32-22.85,10.32h-25.39Zm13.27-11.89h10.85c5.77,0,10.35-2.2,13.73-6.59,3.38-4.39,5.08-10.98,5.08-19.77v-5.83c0-8.01-1.69-14.01-5.08-18.02-3.39-4-7.96-6.01-13.73-6.01h-10.85v56.21Z"/></g></g></svg>