<?xml version="1.0" encoding="UTF-8"?><svg id="_レイヤー_2" xmlns="http://www.w3.org/2000/svg" viewBox="0 0 500 83"><defs><style>.cls-1{fill:#c0b3ab;}</style></defs><g id="_コンテンツ"><g><path class="cls-1" d="M0,81.6L25.72,1.4h15.9l25.72,80.19h-13.79l-5.14-16.48H18l-5.03,16.48H0Zm21.74-28.52h22.91l-9-29.81c-.31-1.17-.66-2.57-1.05-4.21-.39-1.64-.78-3.62-1.17-5.96h-.47c-.39,2.5-.76,4.54-1.11,6.14-.35,1.6-.68,2.94-.99,4.03l-9.12,29.81Z"/><path class="cls-1" d="M75.87,81.6V1.4h33.08c4.13,0,7.81,.84,11.05,2.51,3.23,1.68,5.77,3.97,7.6,6.9,1.83,2.92,2.75,6.37,2.75,10.35,0,4.6-1.19,8.5-3.57,11.69-2.38,3.2-5.28,5.42-8.71,6.66v.47c3.97,1.25,7.33,3.64,10.05,7.19,2.73,3.55,4.09,7.89,4.09,13.03,0,4.52-1.07,8.38-3.21,11.57-2.14,3.2-4.97,5.63-8.48,7.31-3.51,1.68-7.37,2.51-11.57,2.51h-33.08Zm13.33-46.99h16.02c3.66,0,6.49-1.09,8.48-3.27,1.99-2.18,2.98-4.71,2.98-7.6,0-3.43-.99-6.02-2.98-7.77-1.99-1.75-4.58-2.63-7.77-2.63h-16.72v21.28Zm0,35.07h17.65c3.35,0,6.14-.95,8.36-2.86,2.22-1.91,3.33-4.69,3.33-8.36,0-3.27-1.05-6.08-3.16-8.42-2.1-2.34-5.18-3.51-9.24-3.51h-16.95v23.15Z"/><path class="cls-1" d="M174.54,83c-10.21,0-18.22-3.41-24.02-10.23-5.81-6.82-8.71-17.24-8.71-31.27s2.9-24.55,8.71-31.33c5.8-6.78,13.81-10.17,24.02-10.17s18.22,3.39,24.02,10.17c5.81,6.78,8.71,17.22,8.71,31.33s-2.9,24.45-8.71,31.27c-5.81,6.82-13.81,10.23-24.02,10.23Zm0-11.69c6.16,0,10.85-2.32,14.09-6.96,3.23-4.64,4.85-11.28,4.85-19.93v-5.84c0-8.65-1.62-15.29-4.85-19.93-3.23-4.64-7.93-6.96-14.09-6.96s-10.76,2.32-14.03,6.96c-3.27,4.64-4.91,11.28-4.91,19.93v5.84c0,8.65,1.64,15.3,4.91,19.93,3.27,4.64,7.95,6.96,14.03,6.96Z"/><path class="cls-1" d="M247.6,83c-8.5,0-15.14-2.28-19.93-6.84-4.79-4.56-7.19-11.24-7.19-20.05V1.4h13.33V56c0,4.99,1.23,8.79,3.68,11.4,2.46,2.61,5.83,3.92,10.11,3.92s7.75-1.3,10.17-3.92c2.41-2.61,3.62-6.41,3.62-11.4V1.4h13.44V56.11c0,8.81-2.42,15.49-7.25,20.05-4.83,4.56-11.5,6.84-19.99,6.84Z"/><path class="cls-1" d="M306.05,81.6V13.33h-20.58V1.4h54.48V13.33h-20.58V81.6h-13.33Z"/><path class="cls-1" d="M404.96,83c-8.5,0-15.14-2.28-19.93-6.84-4.79-4.56-7.19-11.24-7.19-20.05V1.4h13.33V56c0,4.99,1.23,8.79,3.68,11.4,2.45,2.61,5.83,3.92,10.11,3.92s7.75-1.3,10.17-3.92c2.42-2.61,3.62-6.41,3.62-11.4V1.4h13.44V56.11c0,8.81-2.42,15.49-7.25,20.05-4.83,4.56-11.5,6.84-19.99,6.84Z"/><path class="cls-1" d="M472.18,83c-4.91,0-9.45-.88-13.62-2.63-4.17-1.75-7.52-4.46-10.05-8.12-2.53-3.66-3.8-8.3-3.8-13.91,0-.39,.02-.84,.06-1.34,.04-.51,.06-.88,.06-1.11h13.8c0,.08-.02,.37-.06,.88-.04,.51-.06,.92-.06,1.23,0,4.21,1.27,7.48,3.8,9.82,2.53,2.34,5.9,3.51,10.11,3.51,4.83,0,8.34-1.05,10.52-3.16,2.18-2.1,3.27-4.64,3.27-7.6,0-2.81-.72-5.04-2.16-6.72-1.44-1.68-3.33-3.06-5.67-4.15-2.34-1.09-4.93-2.08-7.77-2.98-2.85-.9-5.71-1.89-8.59-2.98-2.88-1.09-5.49-2.51-7.83-4.27-2.34-1.75-4.23-4.01-5.67-6.78-1.44-2.77-2.16-6.29-2.16-10.58,0-4.99,1.21-9.12,3.62-12.39,2.41-3.27,5.63-5.71,9.64-7.31,4.01-1.6,8.36-2.4,13.03-2.4s9.06,.8,12.92,2.4c3.86,1.6,6.96,4.11,9.29,7.54,2.34,3.43,3.51,7.87,3.51,13.33v1.4h-13.68v-1.29c0-3.66-1.09-6.53-3.27-8.59-2.18-2.06-5.11-3.1-8.77-3.1s-6.86,.84-9.12,2.51c-2.26,1.68-3.39,3.99-3.39,6.96,0,2.5,.72,4.5,2.16,6.02,1.44,1.52,3.35,2.77,5.73,3.74,2.38,.98,4.99,1.89,7.83,2.75,2.84,.86,5.69,1.83,8.53,2.92,2.84,1.09,5.44,2.51,7.77,4.27,2.34,1.75,4.23,3.97,5.67,6.66,1.44,2.69,2.16,6.1,2.16,10.23,0,6.16-1.19,11.07-3.57,14.73-2.38,3.66-5.67,6.33-9.88,8.01-4.21,1.68-9,2.51-14.38,2.51Z"/></g></g></svg>