<?xml version="1.0" encoding="UTF-8"?><svg id="_レイヤー_2" xmlns="http://www.w3.org/2000/svg" viewBox="0 0 325 83"><defs><style>.cls-1{fill:#bda699;}</style></defs><g id="_コンテンツ"><g><path class="cls-1" d="M27.41,83c-4.9,0-9.43-.88-13.59-2.63-4.16-1.75-7.51-4.46-10.03-8.13-2.53-3.66-3.79-8.3-3.79-13.91,0-.39,.02-.84,.06-1.34,.04-.51,.06-.88,.06-1.11H13.88c0,.08-.02,.37-.06,.88-.04,.51-.06,.92-.06,1.23,0,4.21,1.26,7.48,3.79,9.82,2.53,2.34,5.89,3.51,10.09,3.51,4.82,0,8.32-1.05,10.5-3.16,2.18-2.1,3.27-4.64,3.27-7.6,0-2.81-.72-5.04-2.16-6.72-1.44-1.68-3.32-3.06-5.66-4.15-2.33-1.09-4.92-2.08-7.76-2.98-2.84-.9-5.7-1.89-8.57-2.98-2.88-1.09-5.48-2.51-7.82-4.27-2.33-1.75-4.22-4.01-5.66-6.78-1.44-2.77-2.16-6.29-2.16-10.58,0-4.99,1.21-9.12,3.62-12.39,2.41-3.27,5.62-5.71,9.62-7.31C18.88,.8,23.21,0,27.88,0s9.04,.8,12.89,2.4c3.85,1.6,6.94,4.11,9.27,7.54,2.33,3.43,3.5,7.87,3.5,13.33v1.4h-13.65v-1.29c0-3.66-1.09-6.53-3.27-8.59-2.18-2.06-5.09-3.1-8.75-3.1s-6.84,.84-9.1,2.51c-2.26,1.68-3.38,3.99-3.38,6.96,0,2.5,.72,4.5,2.16,6.02,1.44,1.52,3.34,2.77,5.72,3.74,2.37,.98,4.98,1.89,7.82,2.75,2.84,.86,5.68,1.83,8.52,2.92,2.84,1.09,5.42,2.51,7.76,4.27,2.33,1.75,4.22,3.97,5.66,6.66,1.44,2.69,2.16,6.1,2.16,10.23,0,6.16-1.19,11.07-3.56,14.73-2.37,3.66-5.66,6.33-9.86,8.01-4.2,1.67-8.98,2.51-14.35,2.51Z"/><path class="cls-1" d="M97.06,83c-10.19,0-18.02-3.41-23.51-10.23-5.48-6.82-8.22-17.24-8.22-31.27s2.74-24.55,8.22-31.33C79.03,3.39,86.87,0,97.06,0c5.52,0,10.46,1.09,14.81,3.27,4.35,2.18,7.78,5.55,10.27,10.11,2.49,4.56,3.73,10.42,3.73,17.59h-13.65c0-6.55-1.38-11.4-4.14-14.55-2.76-3.16-6.44-4.73-11.02-4.73-6.07,0-10.58,2.32-13.53,6.96-2.96,4.64-4.43,11.28-4.43,19.93v5.84c0,8.65,1.52,15.3,4.55,19.93,3.03,4.64,7.58,6.96,13.65,6.96,4.74,0,8.52-1.58,11.32-4.73s4.2-7.93,4.2-14.32h13.07c0,6.94-1.25,12.68-3.73,17.24-2.49,4.56-5.89,7.95-10.21,10.17s-9.27,3.33-14.87,3.33Z"/><path class="cls-1" d="M138.59,81.6V1.4h50.51V13.33h-37.1v21.28h31.96v11.92h-31.96v23.15h37.8v11.92h-51.21Z"/><path class="cls-1" d="M203.56,81.6V1.4h11.78l26.36,46.29c.54,.78,1.13,1.87,1.75,3.27,.62,1.4,1.4,3.2,2.33,5.38l.35-.35c0-2.18-.02-3.92-.06-5.2-.04-1.29-.06-2.2-.06-2.75V1.4h11.9V81.6h-11.67l-26.6-46.53c-.39-.78-.92-1.85-1.58-3.21-.66-1.36-1.5-3.17-2.51-5.44l-.47,.35c.08,1.95,.15,3.57,.23,4.85,.08,1.29,.12,2.32,.12,3.1v46.88h-11.9Z"/><path class="cls-1" d="M273.79,81.6V1.4h50.51V13.33h-37.1v21.28h31.96v11.92h-31.96v23.15h37.8v11.92h-51.21Z"/></g></g></svg>